<?xml version="1.0" encoding="UTF-8"?>
<svg width="24px" height="19px" viewBox="0 0 24 19" version="1.1" xmlns="http://www.w3.org/2000/svg"
     xmlns:xlink="http://www.w3.org/1999/xlink">
    <!-- Generator: Sketch 45.1 (43504) - http://www.bohemiancoding.com/sketch -->
    <title>身份证 copy 2</title>
    <desc>Created with Sketch.</desc>
    <defs></defs>
    <g id="Page-1" stroke="none" stroke-width="1" fill="none" fill-rule="evenodd">
        <g id="1version-copy-2" transform="translate(-5398.000000, -1724.000000)" fill-rule="nonzero" fill="white">
            <g id="身份证-copy-2" transform="translate(5398.000000, 1724.000000)">
                <path d="M21.9258594,17.1686359 L21.9258594,17.1686359 C22.5493438,17.1686359 23.0292051,16.7231909 23.0292051,16.207513 L23.0292051,1.91493595 C23.0292051,1.39925805 22.5493438,0.953813107 21.9258594,0.953813107 L2.06289588,0.953813107 C1.4394115,0.953813107 0.959550214,1.39925805 0.959550214,1.91493595 L0.959550214,16.207513 C0.959550214,16.7231909 1.4394115,17.1686359 2.06289588,17.1686359 L21.9258594,17.1686359 Z M21.9258594,18.122449 L2.06289588,18.122449 C0.923580783,18.122449 0,17.2651027 0,16.207513 L0,1.91493595 C0,0.857346214 0.923580783,0 2.06289588,0 L21.9258594,0 C23.0651745,0 23.9887553,0.857346214 23.9887553,1.91493595 L23.9887553,16.207513 C23.9887553,17.2651027 23.0651745,18.122449 21.9258594,18.122449 L21.9258594,18.122449 Z M2.87085087,13.918517 C2.87085087,13.918517 2.84797296,12.6081676 3.14759977,12.3302789 C3.44722658,12.0523902 3.5686271,11.5524024 5.1567968,11.3239475 C6.7442285,11.0961989 6.57817919,10.2840717 6.62946993,10.309848 C6.61987597,10.0022989 6.58924914,9.5693999 6.58924914,9.5693999 C6.58924914,9.5693999 5.76195442,9.22901271 5.51804635,8.55530036 C5.00735242,8.35579958 5.07487914,8.22762474 5.02506438,7.96986267 C5.02506438,7.96986267 4.87008493,6.92433728 5.21546754,6.94622948 C5.21546754,6.94622948 5.43981864,6.94622948 5.38483793,6.7057692 C5.36675694,6.30606151 5.36712598,5.53065667 5.39443191,5.26477336 C5.42173773,4.99783062 5.62505596,4.27750926 6.20143168,4.17087344 C6.77817634,4.06423769 6.54681429,4.11826177 6.73869353,4.09072002 C6.93094172,4.06423769 6.87596103,3.95760188 7.23278252,3.95760188 L7.97336261,3.81035965 C8.33018421,3.81035965 8.5585943,4.37602384 8.75047355,4.40321238 C8.94272174,4.4296948 8.9884776,4.32164659 9.38183005,4.39297253 C9.95783671,4.49960836 9.87776407,5.26124233 9.90506989,5.52818496 C9.93274487,5.79477457 9.98329761,6.51933307 9.92831681,6.75908716 C9.87333604,6.99884125 10.0445514,6.97235881 10.0445514,6.97235881 C10.4563538,6.97235881 10.3272042,7.99634509 10.3272042,7.99634509 C10.2641055,8.26717183 10.0917832,8.29965691 9.70839367,8.53517377 C9.46522369,9.2088862 8.68700573,9.70498987 8.68700573,9.70498987 C8.68700573,9.70498987 8.68331578,10.2639451 8.68036382,10.385058 C8.69143376,10.4330795 8.59217309,11.1283308 9.94565973,11.3239476 C11.5338294,11.5520493 11.8079954,12.0523902 12.1068841,12.3302789 C12.406511,12.6081677 12.4386139,13.9185171 12.4386139,13.9185171 L2.87085087,13.918517 L2.87085087,13.918517 Z M14.3522468,12.0816327 L20.3014581,12.0816327 L20.3014581,13.9403454 L14.3522468,13.9403454 L14.3522468,12.0816327 L14.3522468,12.0816327 Z M14.3522468,8.36420725 L20.3014581,8.36420725 L20.3014581,10.2229199 L14.3522468,10.2229199 L14.3522468,8.36420725 L14.3522468,8.36420725 Z M14.3522468,4.64678182 L20.3014581,4.64678182 L20.3014581,6.50549448 L14.3522468,6.50549448 L14.3522468,4.64678182 L14.3522468,4.64678182 Z"
                      id="Shape"></path>
            </g>
        </g>
    </g>
</svg>