<?xml version="1.0" encoding="UTF-8"?>
<svg width="24px" height="23px" viewBox="0 0 24 23" version="1.1" xmlns="http://www.w3.org/2000/svg"
     xmlns:xlink="http://www.w3.org/1999/xlink">
    <!-- Generator: Sketch 45.1 (43504) - http://www.bohemiancoding.com/sketch -->
    <title>房产 copy</title>
    <desc>Created with Sketch.</desc>
    <defs></defs>
    <g id="Page-1" stroke="none" stroke-width="1" fill="none" fill-rule="evenodd">
        <g id="1version-copy-2" transform="translate(-2081.000000, -1359.000000)" fill-rule="nonzero" fill="white">
            <g id="Group-6" transform="translate(1677.000000, 1342.000000)">
                <g id="房产-copy" transform="translate(404.000000, 17.000000)">
                    <path d="M24,11.994996 C24,12.6140236 23.4965041,13.1201051 22.8759071,13.1201051 C22.579286,13.1201051 22.3138607,13.0033002 22.1109094,12.8164343 L22.1069859,12.8203478 L12.0253518,2.74472303 L11.9980245,2.71743755 L1.91249434,12.7969759 C1.7095156,12.9955278 1.4285061,13.1201051 1.12406543,13.1201051 C0.503468491,13.1201051 0,12.6178824 0,11.994996 C0,11.6757257 0.132712648,11.3876545 0.34737954,11.185189 L11.1940389,0.346501065 C11.3969902,0.132377036 11.6858466,0 12.0058715,0 L12.072269,0 C12.0878532,0 12.1073609,0.00391356546 12.1229725,0.00391356546 L12.126896,0.00391356546 C12.403982,0.035030516 12.6498996,0.163548722 12.8255237,0.354300829 L17.2515742,4.77695821 L17.2515742,3.74525478 C17.2515742,3.12236842 17.7550701,2.62014576 18.3756671,2.62014576 C18.996264,2.62014576 19.4997599,3.12236842 19.4997599,3.74525478 L19.4997599,7.03500338 L23.6994554,11.2319055 L23.6955593,11.2358191 C23.882899,11.4343436 24,11.6990977 24,11.994996 M21.7479182,13.8715096 L21.7479182,21.7396919 C21.7479182,22.3587195 21.2444223,22.864801 20.6238254,22.864801 L18.371771,22.864801 L18.371771,13.8715096 L13.8715309,13.8715096 L13.8715309,22.864801 L3.37222372,22.864801 C2.75162678,22.864801 2.24813086,22.3625783 2.24813086,21.7396919 L2.24813086,13.8715096 L11.9980245,4.12681373 L21.7479182,13.8715096 M10.124573,13.8715096 L5.62043689,13.8715096 L5.62043689,18.368169 L10.124573,18.368169 L10.124573,13.8715096"
                          id="Shape"></path>
                </g>
            </g>
        </g>
    </g>
</svg>