<?xml version="1.0" encoding="UTF-8"?>
<svg width="24px" height="28px" viewBox="0 0 24 28" version="1.1" xmlns="http://www.w3.org/2000/svg"
     xmlns:xlink="http://www.w3.org/1999/xlink">
    <!-- Generator: Sketch 45.1 (43504) - http://www.bohemiancoding.com/sketch -->
    <title>退休 copy</title>
    <desc>Created with Sketch.</desc>
    <defs></defs>
    <g id="Page-1" stroke="none" stroke-width="1" fill="none" fill-rule="evenodd">
        <g id="1version-copy-2" transform="translate(-1697.000000, -1427.000000)" fill-rule="nonzero" fill="#2F79B9">
            <g id="Group-6" transform="translate(1677.000000, 1342.000000)">
                <g id="退休-copy" transform="translate(20.000000, 85.000000)">
                    <path d="M17.9883041,10.4372977 L0.0233918246,10.4372977 L0.0233918246,12.6236375 L0.0233918246,12.6296275 L0.0233918246,23.5919421 C0.0233918246,26.0032386 1.81988305,27.9766017 4.01579414,27.9766017 L13.9965006,27.9766017 C16.1918129,27.9766017 17.9883041,26.0032386 17.9883041,23.5919421 C21.2956445,23.5919421 23.9766082,20.6455413 23.9766082,17.0142871 C23.9766082,13.3823673 21.2956445,10.4372977 17.9883041,10.4372977 M17.9883041,20.3034474 L17.9883041,13.7257924 C19.6386807,13.7257924 20.9824561,15.2019877 20.9824561,17.0142871 C20.9824561,18.8265864 19.6386807,20.3034474 17.9883041,20.3034474"
                          id="Shape"></path>
                    <path d="M10.0034994,8.79338311 C8.85254737,8.79338311 7.50877193,8.36210512 7.50877193,7.148803 C7.50877193,6.15113987 8.78787368,5.87027671 10.4047158,5.51553726 C10.9819883,5.38841675 11.8688561,5.19340986 12.3006129,4.99440968 C11.7149567,4.76080077 10.3747743,4.55115174 9.43401172,4.40206801 C6.784786,3.98742884 5.51287021,3.74383664 5.51287021,2.76414339 C5.51287018,0.824723504 12.5078082,0.0233983287 12.9976515,0.0233983287 C13.2725146,0.0233983287 13.497076,0.268987187 13.497076,0.571148017 C13.497076,0.873974373 13.2725146,1.11956323 12.9976515,1.11956323 C11.5263252,1.11956323 7.55368421,2.01805905 6.64765382,2.70091588 C7.19498481,2.94450808 8.59984095,3.1628093 9.57533568,3.31788301 C12.2239626,3.73252218 13.497076,3.97611438 13.497076,4.95647315 C13.497076,5.95413628 12.2179743,6.23433388 10.6011322,6.58907333 C9.92145965,6.73882263 8.81062926,6.9830804 8.52019649,7.2180204 C8.63577077,7.50886681 9.45077895,7.69655261 10.0034994,7.69655261 C10.2783626,7.69655261 10.502924,7.94214147 10.502924,8.2443023 C10.502924,8.54779426 10.2783626,8.79338311 10.0034994,8.79338311"
                          id="Shape"></path>
                </g>
            </g>
        </g>
    </g>
</svg>