<?xml version="1.0" encoding="UTF-8"?>
<svg width="24px" height="24px" viewBox="0 0 24 24" version="1.1" xmlns="http://www.w3.org/2000/svg"
     xmlns:xlink="http://www.w3.org/1999/xlink">
    <!-- Generator: Sketch 45.1 (43504) - http://www.bohemiancoding.com/sketch -->
    <title>放大镜</title>
    <desc>Created with Sketch.</desc>
    <defs></defs>
    <g id="Page-1" stroke="none" stroke-width="1" fill="none" fill-rule="evenodd">
        <g id="1version-copy-2" transform="translate(-4352.000000, -1276.000000)" fill-rule="nonzero" fill="#2F79B9">
            <g id="放大镜" transform="translate(4352.000000, 1276.000000)">
                <path d="M23.9705573,20.8021155 L23.9221423,20.6131682 L23.8977205,20.5420452 L23.8728703,20.4713506 L23.8484485,20.4242209 L23.8240268,20.3530979 L23.7991766,20.3059682 L23.7507615,20.2112803 L23.7263397,20.1637222 L23.701918,20.1165925 L23.6774962,20.0930276 L23.6530745,20.0458979 L23.6286527,20.0219046 L23.604231,19.9747749 L23.5798092,19.9512101 L23.554959,19.9036519 L23.5305372,19.880087 L23.5061155,19.8560937 L23.4812653,19.8089641 L23.4594142,19.7849707 L23.4349925,19.7609774 L23.4105707,19.7138477 L23.386149,19.6898544 L23.3617272,19.6662895 L23.3373054,19.6422963 L23.3128837,19.6187314 L23.2884619,19.5947381 L23.2636117,19.5711732 L23.23919,19.5471799 L23.2147682,19.5236151 L23.189918,19.4996218 L23.1654962,19.4760569 L23.1170812,19.4284988 L23.0926594,19.4049339 L23.0682377,19.3809406 L23.0438159,19.3573757 L23.0193941,19.3333824 L22.9949724,19.3098176 L22.9705506,19.2858243 L22.9457004,19.2622594 L22.8972854,19.2147013 L22.8724351,19.1911364 L22.8480134,19.1671431 L22.8235916,19.1435782 L22.7991699,19.1195849 L22.7507548,19.0960201 L22.7023398,19.0484619 L22.677918,19.0248971 L22.6534962,19.0009038 L22.628646,18.9773389 L22.6042243,18.9533456 L22.5798025,18.9297807 L22.5549523,18.9057874 L22.5305305,18.8822226 L22.5061088,18.8582293 L22.481687,18.8346644 L22.433272,18.7871063 L22.4088502,18.7635414 L22.3844285,18.7395481 L22.3600067,18.7159832 L22.3351565,18.6919899 L22.3107347,18.6684251 L22.286313,18.6444318 L22.2614627,18.6208669 L22.2130477,18.5733088 L22.1886259,18.5497439 L22.1642042,18.5257506 L22.1397824,18.5021857 L22.1153607,18.4781924 L22.0669456,18.4546276 L22.0425238,18.4306343 L22.0176736,18.4070694 L21.9932519,18.3830761 L21.9688301,18.3595113 L21.9439799,18.3119531 L21.9195581,18.2883882 L21.8951364,18.2643949 L21.8707146,18.2408301 L21.8462929,18.2168368 L21.8218711,18.1932719 L21.7974494,18.1692786 L21.7730276,18.1457138 L21.7246125,18.1217205 L21.6997623,18.0977272 L21.6753406,18.0741623 L21.6509188,18.050169 L21.6260686,18.0266042 L21.6016468,18.0026109 L21.5772251,17.979046 L21.5528033,17.9550527 L21.5283816,17.9314878 L21.5039598,17.9074945 L21.4795381,17.8839297 L21.431123,17.8363715 L21.3822795,17.8128067 L21.3578577,17.7888134 L21.3330075,17.7652485 L21.3085857,17.7412552 L21.284164,17.7176903 L21.2357489,17.6701322 L21.2113272,17.6465673 L21.1869054,17.622574 L21.1624837,17.5990092 L21.1380619,17.5750159 L21.1136402,17.551451 L21.0887899,17.5274577 L21.0643682,17.5038928 L21.0399464,17.4798995 L21.0150962,17.4563347 L20.9666811,17.4087765 L20.9529707,17.3950661 L20.928549,17.3710728 L20.9041272,17.347508 L20.8797054,17.3235147 L20.8552837,17.2999498 L20.8308619,17.2759565 L20.8060117,17.2523916 L20.7575967,17.2048335 L20.7331749,17.1812686 L20.7083247,17.1572753 L20.6599096,17.1337105 L20.6354879,17.1097172 L20.6110661,17.0861523 L20.5866444,17.062159 L20.5622226,17.0385941 L20.5138075,16.991036 L20.4889573,16.9674711 L20.4645356,16.9434778 L20.4401138,16.919913 L20.4152636,16.8959197 L20.3908418,16.8723548 L20.3664201,16.8483615 L20.3419983,16.8247966 L20.3175766,16.8008033 L20.2931548,16.7772385 L20.2447398,16.7296803 L20.220318,16.7061155 L20.1958962,16.6821222 L20.171046,16.6585573 L20.1466243,16.634564 L20.1260586,16.6144268 L20.1012084,16.5904335 L20.0767866,16.5668686 L20.0283715,16.5193105 L20.0039498,16.4957456 L19.979528,16.4717523 L19.9551063,16.4481874 L19.9306845,16.4241941 L19.9062628,16.4006293 L19.8814125,16.376636 L19.8569908,16.3530711 L19.832569,16.3290778 L19.8077188,16.3050845 L19.7832971,16.2815197 L19.7588753,16.2575264 L19.7344535,16.2339615 L19.7100318,16.2099682 L19.68561,16.1864033 L19.6611883,16.1624101 L19.6367665,16.1388452 L19.5883515,16.1148519 L19.5635012,16.0908586 L19.5390795,16.0672937 L19.5146577,16.0433004 L19.4898075,16.0197356 L19.4653857,15.9957423 L19.440964,15.9721774 L19.4165422,15.9481841 L19.3921205,15.9246193 L19.3676987,15.900626 L19.343277,15.8770611 L19.2948619,15.8530678 L19.2704402,15.8290745 L19.2455899,15.8055096 L19.2211682,15.7815163 L19.1967464,15.7579515 L19.1718962,15.7339582 L19.1474744,15.7103933 L19.1230527,15.6864 L19.0986309,15.6628352 L19.0502159,15.615277 L19.0257941,15.5917121 L19.0013724,15.5677188 L18.9769506,15.544154 L18.9521004,15.5201607 L18.9276786,15.4965958 L18.9032569,15.4726025 L18.8784067,15.4490377 L18.8299916,15.4014795 L18.8055698,15.3779146 L18.7811481,15.3539213 L18.7567263,15.3303565 L18.7323046,15.3063632 L18.7078828,15.2827983 L18.6834611,15.258805 L18.6590393,15.2352402 L18.6341891,15.2112469 L18.6097673,15.187682 L18.5682075,15.1705439 L18.5437858,15.1465506 L18.519364,15.1229858 L18.4949423,15.0989925 L18.4705205,15.0754276 L18.4460987,15.0514343 L18.421677,15.0278694 L18.3972552,15.0038762 L18.3728335,14.9803113 L18.3484117,14.956318 L18.3235615,14.9323247 L18.2991397,14.9087598 L18.2991397,14.8616301 L18.3235615,14.8145004 L18.3484117,14.7905071 L18.3728335,14.7669423 L18.3972552,14.7193841 L18.421677,14.6958193 L18.4460987,14.6486896 L18.4705205,14.6246963 L18.4949423,14.6011314 L18.519364,14.5540017 L18.5437858,14.5300084 L18.5682075,14.4828787 L18.5930577,14.4588854 L18.6174795,14.4117557 L18.6419013,14.3881908 L18.6667515,14.3410611 L18.6911732,14.3170678 L18.7395883,14.22238 L18.7640101,14.1983867 L18.8124251,14.1036988 L18.8368469,14.080134 L18.8612686,14.0325758 L18.8856904,13.9854461 L18.9105406,13.9618813 L18.9349624,13.9147516 L18.9593841,13.8907583 L18.9842343,13.8436286 L19.0326494,13.7489407 L19.0570711,13.7249474 L19.178323,13.488442 L19.2031732,13.4413123 L19.227595,13.3941826 L19.2520168,13.3466244 L19.276867,13.2994947 L19.325282,13.2048069 L19.3497038,13.1336838 L19.4225406,12.9918663 L19.4469624,12.9207432 L19.4713841,12.8736135 L19.4958059,12.802919 L19.5206561,12.7557893 L19.5450778,12.6846663 L19.5694996,12.6375366 L19.5943498,12.5664135 L19.6187716,12.495719 L19.6431933,12.4481608 L19.6676151,12.3774663 L19.7160302,12.2352202 L19.7404519,12.1645257 L19.7648737,12.0698378 L19.8132887,11.9275918 L19.8381389,11.8329039 L19.8625607,11.7617809 L19.8869825,11.6670931 L19.9118327,11.5724052 L19.9362544,11.4777173 L19.9846695,11.2407834 L20.0090912,11.0989659 L20.033513,10.9100186 L20.0819281,10.5788253 L20.1063498,10.3894495 L20.1312,10.1293792 L20.1556218,9.70349807 L20.1556218,9.11223447 L20.1312,8.66235999 L20.1063498,8.40228969 L20.0819281,8.21334241 L20.0575063,8.04753153 L20.0330845,7.90528551 L20.0086628,7.69234494 L19.984241,7.55052736 L19.9598193,7.43227464 L19.9353975,7.33758678 L19.9109757,7.21933406 L19.8861255,7.1246462 L19.8617038,7.02995834 L19.837282,6.95883532 L19.8124318,6.86414746 L19.78801,6.79302444 L19.7635883,6.72232988 L19.7391665,6.62764203 L19.6907515,6.48539601 L19.6663297,6.41470145 L19.641908,6.34357843 L19.6174862,6.29644873 L19.5930644,6.22532571 L19.5682142,6.15463115 L19.5437925,6.10707299 L19.5193707,6.05994329 L19.4945205,5.98924873 L19.4700987,5.94211903 L19.445677,5.87099601 L19.3972619,5.77630815 L19.3728402,5.70518513 L19.2755816,5.51623785 L19.2507314,5.46910815 L19.2263096,5.42154999 L19.2018879,5.37442029 L19.1770376,5.30372573 L19.1526159,5.27973244 L19.0069422,4.9960973 L18.9825205,4.94853914 L18.9576703,4.92497428 L18.9092552,4.83028642 L18.884405,4.78315672 L18.8599832,4.75916342 L18.8115682,4.66447556 L18.7871464,4.64048227 L18.7387314,4.54579441 L18.7143096,4.52180111 L18.6898879,4.47467141 L18.6654661,4.45110655 L18.6406159,4.40397685 L18.6161941,4.37998356 L18.5917724,4.33285386 L18.5669222,4.30886056 L18.5425004,4.26173086 L18.5180786,4.238166 L18.4936569,4.1910363 L18.4692351,4.167043 L18.4448134,4.11991331 L18.4203916,4.09592001 L18.3959698,4.07235515 L18.3715481,4.02522545 L18.3471263,4.00123215 L18.3222761,3.97766729 L18.2978544,3.95367399 L18.2734326,3.93010913 L18.2485824,3.88297943 L18.2001673,3.83542127 L18.1757456,3.78829157 L18.1513238,3.76472671 L18.1269021,3.74073341 L18.1024803,3.69360372 L18.0780585,3.67003885 L18.0536368,3.64604556 L18.0287866,3.62205226 L17.9803715,3.5273644 L17.9555213,3.50379954 L17.9310995,3.47980624 L17.9066778,3.45624138 L17.882256,3.40911168 L17.833841,3.36155352 L17.8094192,3.33798866 L17.7849975,3.31399536 L17.7605757,3.2904305 L17.7361539,3.26643721 L17.7113037,3.21930751 L17.6924519,3.19788452 L17.6680301,3.17389122 L17.6431799,3.14989792 L17.6191866,3.1267615 L17.5947648,3.1027682 L17.5707715,3.0796318 L17.5463498,3.0556385 L17.521928,3.03207364 L17.4975063,3.00808034 L17.4730845,2.98451548 L17.4486628,2.96052218 L17.4238125,2.93652889 L17.3993908,2.91296403 L17.374969,2.88897073 L17.3505473,2.86540587 L17.3256971,2.84141257 L17.3012753,2.81784771 L17.2768535,2.79385441 L17.2524318,2.77028955 L17.2040167,2.72273139 L17.179595,2.69916653 L17.1573155,2.67688702 L17.1328937,2.65332216 L17.108472,2.62975732 L17.0840502,2.60619246 L17.0596285,2.58262762 L17.0347782,2.55906276 L17.0103565,2.53506946 L16.9859347,2.5115046 L16.9375197,2.48751131 L16.9130979,2.46351801 L16.8886762,2.43995315 L16.8642544,2.41595985 L16.8398326,2.39239499 L16.8154109,2.36840169 L16.7905607,2.34483683 L16.7421456,2.32084353 L16.7172954,2.29727867 L16.6688803,2.24972051 L16.6444586,2.22615565 L16.5960435,2.20216235 L16.5716218,2.17859749 L16.5472,2.15460419 L16.5227783,2.13103933 L16.4756485,2.10918828 L16.4516552,2.08562342 L16.426805,2.06163013 L16.37839,2.03763683 L16.3539682,2.01407197 L16.3055532,1.99007867 L16.2811314,1.96651381 L16.2327163,1.94252051 L16.2082946,1.91895565 L16.1594511,1.89496235 L16.1350293,1.87139749 L16.1101791,1.84740419 L16.061764,1.82383933 L16.0373423,1.79984603 L15.9889272,1.79984603 L15.9889272,1.75271633 L15.9405122,1.72872304 L15.9160904,1.70515818 L15.8672469,1.6833071 L15.8428251,1.65974224 L15.8184033,1.63574895 L15.7695598,1.61175565 L15.7455665,1.58861925 L15.6971515,1.56462595 L15.6487364,1.54148955 L15.6243146,1.51749625 L15.5754711,1.49393139 L15.5510494,1.46993809 L15.5022058,1.44637323 L15.4537908,1.42237993 L15.429369,1.39881507 L15.3321105,1.35125691 L15.3076887,1.32769205 L15.2588452,1.30455565 L15.2104301,1.28099079 L15.1615866,1.25699749 L15.1371649,1.23343263 L15.0887498,1.20943933 L15.0403347,1.18673139 L14.9919197,1.16273809 L14.9426477,1.13874477 L14.9182259,1.11517991 L14.8693824,1.09161507 L14.8209674,1.06805021 L14.7725523,1.04448535 L14.7241372,1.02092049 L14.6757222,0.996927188 L14.6268787,0.973362326 L14.5536134,0.949369029 L14.5047699,0.926232628 L14.4075113,0.878674469 L14.3590962,0.855109632 L14.3102527,0.831116335 L14.2369875,0.807551473 L14.1885724,0.783558176 L14.1401573,0.759993314 L14.0673205,0.736000017 L14.018477,0.712435155 L13.970062,0.688441858 L13.8963682,0.665733891 L13.8479532,0.642169029 L13.7751163,0.618175732 L13.7262728,0.59461087 L13.6530076,0.570617573 L13.5801707,0.547052711 L13.5317557,0.523059414 L13.4589189,0.499494552 L13.3123883,0.451936393 L13.2395515,0.428371531 L13.1422929,0.405235155 L13.0690276,0.381670293 L12.9957623,0.357676996 L12.8985038,0.334112134 L12.8008167,0.310118837 L12.7275515,0.286553975 L12.5338912,0.239852711 L12.4117824,0.216287849 L12.3145239,0.192294552 L12.1928435,0.16872969 L12.0711632,0.145164854 L11.9494829,0.121599992 L11.8033808,0.0976066946 L11.6572787,0.0740418326 L11.4871833,0.0504769958 L11.2926661,0.0264836987 L11.0248837,0.00334727197 L9.1024201,0.00334727197 L8.83463767,0.0269121339 L8.6401205,0.0504769958 L8.4700251,0.0744702929 L8.32392301,0.0980351548 L8.17782093,0.122028452 L8.0561406,0.145593314 L7.93446028,0.169586611 L7.81277995,0.193151473 L7.71509292,0.21714477 L7.61783435,0.240709632 L7.49615403,0.264702929 L7.42331721,0.288696226 L7.32605864,0.312261088 L7.22880008,0.336254385 L7.15596326,0.359819247 L7.05870469,0.383812544 L6.98543932,0.405235155 L6.91260251,0.429228452 L6.81534394,0.452793314 L6.66924183,0.500351473 L6.62039832,0.523916335 L6.54756151,0.547909632 L6.47472469,0.571474494 L6.40188788,0.595467791 L6.35347283,0.619032653 L6.28063602,0.64302595 L6.23136402,0.665733891 L6.15852721,0.689727188 L6.10968369,0.713720485 L6.06126864,0.737285347 L5.98843182,0.761278644 L5.93958831,0.784843506 L5.89117326,0.808836803 L5.84232974,0.832401665 L5.76949293,0.856394962 L5.72064941,0.879959824 L5.67223436,0.903953121 L5.62296233,0.926232628 L5.57411882,0.94979749 L5.52570377,0.973790787 L5.45286695,0.997355649 L5.40402344,1.02134895 L5.37960168,1.04448535 L5.33075817,1.06847864 L5.28234309,1.09161507 L5.23349957,1.11560837 L5.18465606,1.13874477 L5.136241,1.16273807 L5.08739749,1.18673139 L5.03855397,1.21029625 L4.99013892,1.23428955 L4.96571716,1.25785441 L4.91730211,1.28184771 L4.86845859,1.30541257 L4.82004354,1.32940587 L4.79562178,1.35297073 L4.74720673,1.37696403 L4.69836321,1.40095732 L4.67394146,1.42452218 L4.62509794,1.44851548 L4.57625443,1.47208034 L4.55183267,1.49607364 L4.50298915,1.5196385 L4.47899581,1.54148955 L4.43058075,1.56505441 L4.406159,1.58861925 L4.35774394,1.61218411 L4.33332218,1.63617741 L4.28490713,1.6601707 L4.26048537,1.68373556 L4.21207032,1.70772886 L4.18764856,1.73129372 L4.13923351,1.75528702 L4.11481175,1.77885188 L4.09038999,1.80284518 L4.04154648,1.82683848 L4.01712472,1.85040334 L3.99270296,1.87439664 L3.96828121,1.8979615 L3.91986615,1.92195479 L3.89544439,1.94551966 L3.87059415,1.9673707 L3.82217907,1.99093556 L3.77333556,2.01450043 L3.74934226,2.03806526 L3.70049874,2.06205859 L3.67607699,2.08562342 L3.65165523,2.10918828 L3.62723347,2.13318158 L3.57881842,2.15631798 L3.55439666,2.18031131 L3.5299749,2.20387614 L3.50598158,2.227441 L3.45713807,2.25100587 L3.43271631,2.27499916 L3.40829455,2.29856403 L3.38430126,2.32212886 L3.3598795,2.34612218 L3.31103598,2.36925859 L3.28661423,2.39325188 L3.26219247,2.41681674 L3.23819917,2.44038158 L3.21377741,2.46394644 L3.18935566,2.48793974 L3.1649339,2.5115046 L3.11651882,2.53506946 L3.09209706,2.55906276 L3.06767531,2.58262762 L3.04325355,2.60619246 L3.01883179,2.62975732 L2.99483849,2.65375062 L2.97041674,2.67688702 L2.94599498,2.70088034 L2.92157322,2.72444518 L2.89757992,2.74801004 L2.87315817,2.77200334 L2.84873641,2.7955682 L2.82431465,2.81913306 L2.7998929,2.8426979 L2.77589957,2.86669122 L2.75147782,2.88982762 L2.72705606,2.91382092 L2.7026343,2.93738578 L2.678641,2.96095062 L2.65379079,2.98494394 L2.62979749,3.00850878 L2.60537573,3.03207364 L2.58095397,3.0556385 L2.55653222,3.0796318 L2.53253892,3.1027682 L2.50811716,3.1267615 L2.48369541,3.15032636 L2.43528033,3.19788452 L2.41085857,3.24501422 L2.38643681,3.26857908 L2.36201505,3.29257238 L2.3375933,3.31570878 L2.3136,3.3397021 L2.28917824,3.36326694 L2.26475649,3.3868318 L2.24033473,3.4339615 L2.21591297,3.45795479 L2.19149121,3.48151966 L2.16706946,3.50551295 L2.1426477,3.52907782 L2.11822594,3.57620751 L2.09380418,3.60020081 L2.06938243,3.62376567 L2.04496067,3.64775897 L2.02053891,3.69488867 L1.99611715,3.71888197 L1.9716954,3.76601167 L1.94727364,3.78957653 L1.92285188,3.83670623 L1.89971548,3.86027114 L1.87529372,3.88426444 L1.85087197,3.93139413 L1.82687867,3.954959 L1.80245691,3.97895229 L1.77803515,4.00251715 L1.7536134,4.04964685 L1.72919164,4.07364015 L1.70476988,4.09720501 L1.68034813,4.14476317 L1.6563548,4.16789957 L1.63193305,4.19189287 L1.60751129,4.23902257 L1.58308953,4.262159 L1.55866777,4.30928869 L1.53424602,4.33328199 L1.50982426,4.38041169 L1.4854025,4.40440499 L1.46098074,4.45153469 L1.43655899,4.47509955 L1.41213723,4.52222925 L1.38771547,4.56978741 L1.36329372,4.59335227 L1.33887196,4.64048197 L1.3144502,4.68761167 L1.2913138,4.71203347 L1.26689204,4.75916317 L1.24247028,4.80629287 L1.21847699,4.83071465 L1.19405523,4.87784435 L1.14564018,4.97253221 L1.12121842,4.99652551 L1.04838161,5.13834309 L1.02395985,5.18547279 L0.975544795,5.28016064 L0.951123038,5.32729034 L0.902707983,5.4219782 L0.878286226,5.46953636 L0.829871172,5.56422422 L0.805449414,5.61135392 L0.781027657,5.68204848 L0.7566059,5.72960664 L0.732184142,5.77673633 L0.707762385,5.82386603 L0.682912142,5.89498913 L0.658490385,5.94254729 L0.634068628,6.01324185 L0.585653573,6.10792971 L0.561231816,6.17905273 L0.536810059,6.22618243 L0.512816736,6.29730545 L0.488394979,6.36842847 L0.463973222,6.43912303 L0.439551464,6.51024605 L0.415129707,6.58136907 L0.39070795,6.65206363 L0.366286192,6.72318665 L0.342292895,6.79430962 L0.317871138,6.88942594 L0.293449381,6.9601205 L0.269027623,7.05523682 L0.220612569,7.2441841 L0.196190787,7.33844352 L0.171769029,7.43313138 L0.123353975,7.67006528 L0.0989322176,7.81188286 L0.0745104603,7.95412888 L0.0500887029,8.09594646 L0.0256669456,8.28489374 L0.00167364854,8.52182762 L0.00167364854,10.2964753 L0.0260954059,10.5334092 L0.0505171632,10.6992201 L0.0749389205,10.8646025 L0.0993606778,11.0068485 L0.123782435,11.1251012 L0.148204192,11.2429255 L0.17262595,11.3611782 L0.197047707,11.4558661 L0.221469464,11.5741188 L0.245891222,11.6688067 L0.270312979,11.7399297 L0.294734736,11.8346175 L0.319156494,11.9057406 L0.342292895,12 L0.366714653,12.071123 L0.39113641,12.1418176 L0.415558167,12.2129406 L0.439979925,12.2840636 L0.464401682,12.3547582 L0.488823439,12.4258812 L0.513245197,12.4970042 L0.537666954,12.5676988 L0.562088711,12.6148285 L0.586510469,12.6859515 L0.610932226,12.7570745 L0.635353983,12.8042042 L0.659775741,12.8748988 L0.684197498,12.9220285 L0.708619255,12.9695866 L0.733041013,13.0402812 L0.75746277,13.0874109 L0.781884527,13.1345406 L0.806306285,13.1820988 L0.830728042,13.2527933 L0.879143096,13.3474812 L0.903564854,13.3950393 L0.951979908,13.4897272 L0.976401665,13.5368569 L1.02481672,13.6315448 L1.04923848,13.6786745 L1.07366023,13.7258042 L1.09808199,13.7497974 L1.12250375,13.7969271 L1.14692551,13.8440568 L1.17134726,13.8911865 L1.19576902,13.9151798 L1.22019078,13.9623095 L1.24461254,13.9858744 L1.26903429,14.0330041 L1.2913138,14.0822762 L1.31573556,14.105841 L1.34015731,14.1529707 L1.36457907,14.2001004 L1.38900083,14.2240937 L1.41342259,14.2712234 L1.43784434,14.2952167 L1.4862594,14.3899046 L1.51068115,14.4134694 L1.53510291,14.4605991 L1.55952467,14.4845924 L1.58394643,14.5317221 L1.60836818,14.5557154 L1.63278994,14.6028451 L1.6572117,14.62641 L1.68163346,14.6504033 L1.70605521,14.697533 L1.73047697,14.7210978 L1.75489873,14.768656 L1.77932049,14.7922209 L1.80374224,14.8162142 L1.828164,14.8633438 L1.85258576,14.8869087 L1.87700751,14.910902 L1.90142927,14.9580317 L1.92585103,14.982025 L1.95027279,15.0055899 L1.97469454,15.0527196 L1.9991163,15.0767129 L2.02353806,15.1238426 L2.04795982,15.1474074 L2.07023932,15.1705439 L2.09466108,15.2176736 L2.11908284,15.2416669 L2.14350459,15.2652318 L2.16792635,15.2892251 L2.19234811,15.3363548 L2.21676987,15.3599196 L2.24119162,15.3839129 L2.26561338,15.4074778 L2.29003514,15.4314711 L2.3144569,15.4786008 L2.33887865,15.5025941 L2.36330041,15.526159 L2.38772217,15.5501523 L2.41214392,15.5737171 L2.43656568,15.5977104 L2.46098744,15.6212753 L2.4854092,15.6452686 L2.50983095,15.6692619 L2.53425271,15.7163916 L2.55867447,15.7399564 L2.58309623,15.7639497 L2.60751798,15.7875146 L2.63193974,15.8115079 L2.6563615,15.8350727 L2.68078326,15.859066 L2.70520501,15.8830593 L2.72962677,15.9066242 L2.75404853,15.9306175 L2.77847028,15.9541824 L2.80289204,15.9781757 L2.85173556,16.0017405 L2.87615731,16.0257338 L2.90057907,16.0492987 L2.92500083,16.073292 L2.94942259,16.0968568 L2.97384434,16.1208501 L2.9982661,16.1448434 L3.02268786,16.1684083 L3.04710962,16.1924016 L3.07153137,16.2159665 L3.09595313,16.2399597 L3.14479664,16.2635246 L3.1692184,16.2875179 L3.19364016,16.3110828 L3.21806192,16.3350761 L3.24248367,16.3590694 L3.26690543,16.3826342 L3.29132719,16.4066275 L3.31574895,16.4301924 L3.36459246,16.4541857 L3.38901422,16.4777505 L3.41343597,16.5017438 L3.43785773,16.5253087 L3.46227949,16.549302 L3.511123,16.5732953 L3.53554476,16.5968602 L3.55996652,16.6208535 L3.58438828,16.6444183 L3.63323179,16.6684116 L3.65765355,16.6919765 L3.68207531,16.7159698 L3.70649706,16.7395346 L3.75534058,16.7635279 L3.77976233,16.7875212 L3.80418409,16.8110861 L3.82860585,16.8350794 L3.8770209,16.8586443 L3.90144266,16.8826375 L3.94985772,16.9062024 L3.97427947,16.9301957 L3.99870123,16.9537606 L4.02312299,16.9777539 L4.04754474,17.0013187 L4.09638826,17.025312 L4.12081002,17.0493053 L4.16965353,17.0728702 L4.19407529,17.0968635 L4.2429188,17.1204283 L4.26734056,17.1444216 L4.29176232,17.1679865 L4.34017737,17.1919798 L4.36459913,17.2155447 L4.41301418,17.239538 L4.4618577,17.2635313 L4.48627946,17.2870961 L4.53512297,17.3110894 L4.55954473,17.3346543 L4.60838824,17.3586476 L4.63281,17.3822124 L4.68165351,17.4062057 L4.73006857,17.4297706 L4.75449033,17.4537639 L4.80290538,17.4777572 L4.8517489,17.5013221 L4.90059241,17.5253153 L4.92501417,17.5488802 L4.97342922,17.5728735 L5.02227274,17.5964384 L5.07111625,17.6204317 L5.11953131,17.6439965 L5.14395306,17.6679898 L5.19236812,17.6915547 L5.29005515,17.7391128 L5.3384702,17.7626777 L5.38731372,17.786671 L5.43572877,17.8102359 L5.48457228,17.8342292 L5.5334158,17.857794 L5.58183085,17.8817873 L5.63067437,17.9057806 L5.67951788,17.9293455 L5.75235469,17.9533388 L5.80076975,17.9769036 L5.84961326,18.0008969 L5.92245008,18.0244618 L6.01970864,18.0484551 L6.06855216,18.07202 L6.11696721,18.0960133 L6.16581073,18.1195781 L6.23864754,18.1435714 L6.28749105,18.1675647 L6.36032787,18.1911296 L6.43316468,18.2151229 L6.48200819,18.2386877 L6.554845,18.262681 L6.62768182,18.2862459 L6.70051863,18.3102392 L6.77335544,18.3338041 L6.91945752,18.3813622 L6.99229433,18.4049271 L7.06513115,18.4289204 L7.16238972,18.4524852 L7.23522653,18.4764785 L7.3324851,18.5000434 L7.42974367,18.5240367 L7.52743069,18.5476015 L7.62468926,18.5715948 L7.72194783,18.5951597 L7.84362816,18.619153 L7.94088673,18.6431463 L8.06256705,18.6667112 L8.18424738,18.6907045 L8.33034946,18.7142693 L8.47645155,18.7382626 L8.64654695,18.7618275 L8.84149255,18.7858208 L9.08485323,18.8093856 L9.40105072,18.8333789 L10.7395344,18.8333789 L11.0561604,18.8093856 L11.299521,18.7858208 L11.4940382,18.7618275 L11.6641336,18.7382626 L11.8102357,18.7142693 L11.931916,18.6907045 L12.0535963,18.6667112 L12.1752767,18.6431463 L12.296957,18.619153 L12.4186373,18.5951597 L12.5163244,18.5715948 L12.6135829,18.5476015 L12.7108415,18.5240367 L12.8085285,18.5000434 L12.8817938,18.4764785 L12.9790524,18.4524852 L13.0523176,18.4289204 L13.1500047,18.4049271 L13.2228415,18.3813622 L13.2956783,18.3573689 L13.3689436,18.3333756 L13.4422088,18.3098108 L13.5150456,18.2858175 L13.5878825,18.2622526 L13.6607193,18.2382593 L13.7095628,18.2146944 L13.7828281,18.1907011 L13.8072498,18.1907011 L13.8316716,18.2146944 L13.8560933,18.2382593 L13.8805151,18.2622526 L13.9049368,18.2858175 L13.9293586,18.3098108 L13.9537804,18.3333756 L13.9786306,18.3573689 L14.0030523,18.4044986 L14.0274741,18.4284919 L14.0518958,18.4520568 L14.0767461,18.4760501 L14.1011678,18.4996149 L14.1255896,18.5236082 L14.1500113,18.5471731 L14.1744331,18.5711664 L14.1988548,18.5947312 L14.2472699,18.6422894 L14.2716917,18.6658543 L14.2965419,18.6898476 L14.3209636,18.7134124 L14.3453854,18.7374057 L14.3702356,18.7609706 L14.3946574,18.7849639 L14.4190791,18.8085287 L14.4674942,18.8560869 L14.4919159,18.8796518 L14.5163377,18.9036451 L14.5407594,18.9272099 L14.5651812,18.9512032 L14.589603,18.9747681 L14.6144532,18.9987614 L14.6388749,19.0223262 L14.6632967,19.0463195 L14.6881469,19.0698844 L14.7125687,19.0938777 L14.7609837,19.117871 L14.7854055,19.1414359 L14.8098272,19.1654292 L14.834249,19.188994 L14.8586708,19.2129873 L14.8830925,19.2365522 L14.9079427,19.2605455 L14.9323645,19.2845388 L14.9567862,19.3081036 L14.9816365,19.3320969 L15.0060582,19.3556618 L15.03048,19.3796551 L15.0403347,19.3822259 L15.0647565,19.4062192 L15.0891783,19.4297841 L15.1375933,19.4773423 L15.1620151,19.5009071 L15.1864368,19.5249004 L15.211287,19.5484653 L15.2357088,19.5724586 L15.2601306,19.5960234 L15.2849808,19.6200167 L15.3094025,19.6435816 L15.3578176,19.6675749 L15.3822393,19.6911398 L15.4306544,19.7386979 L15.4550762,19.7622628 L15.4794979,19.7862561 L15.5039197,19.8098209 L15.5287699,19.8338142 L15.5531916,19.8573791 L15.5776134,19.8813724 L15.6024636,19.9049373 L15.6508787,19.9524954 L15.6753004,19.9760603 L15.7237155,20.0000536 L15.7481372,20.0236184 L15.772559,20.0476117 L15.7969808,20.0711766 L15.821831,20.0951699 L15.8462527,20.1187348 L15.8706745,20.1427281 L15.8955247,20.1662929 L15.9439398,20.2138511 L15.9683615,20.2374159 L15.9927833,20.2614092 L16.017205,20.2849741 L16.0416268,20.3089674 L16.0660485,20.3325323 L16.0904703,20.3565256 L16.1148921,20.3800904 L16.1397423,20.4040837 L16.164164,20.428077 L16.1885858,20.4516419 L16.213436,20.4756352 L16.2378578,20.4992 L16.2622795,20.5231933 L16.2867013,20.5467582 L16.311123,20.5707515 L16.3355448,20.5943164 L16.3839598,20.6418745 L16.4083816,20.6654394 L16.4328034,20.6894327 L16.4576536,20.7129975 L16.4820753,20.7369908 L16.5064971,20.7605557 L16.5313473,20.784549 L16.5557691,20.8081138 L16.5801908,20.8321071 L16.6286059,20.8561004 L16.6530276,20.8796653 L16.6774494,20.9036586 L16.7018712,20.9272235 L16.7262929,20.9512168 L16.7511431,20.9747816 L16.7755649,20.9987749 L16.7999866,21.0223398 L16.8248369,21.0463331 L16.8492586,21.0703264 L16.8736804,21.0938912 L16.8981021,21.1178845 L16.9225239,21.1414494 L16.9469456,21.1654427 L16.9713674,21.1890076 L16.9957892,21.2130009 L17.0202109,21.2365657 L17.0446327,21.260559 L17.0694829,21.2841239 L17.1178979,21.331682 L17.1427482,21.3552469 L17.1671699,21.3792402 L17.1915917,21.4028051 L17.2400067,21.4267984 L17.2644285,21.4503632 L17.2888503,21.4743565 L17.313272,21.4979214 L17.3376938,21.5219147 L17.362544,21.545908 L17.3869657,21.5694728 L17.4113875,21.5934661 L17.4358093,21.617031 L17.4606595,21.6410243 L17.4850812,21.6645891 L17.509503,21.6885824 L17.5339247,21.7121473 L17.5583465,21.7361406 L17.5827683,21.7597055 L17.6311833,21.8072636 L17.6556051,21.8308285 L17.6804553,21.8548218 L17.704877,21.8783866 L17.7292988,21.9023799 L17.7781423,21.9259448 L17.8025641,21.9499381 L17.8269858,21.973503 L17.8754009,22.0210611 L17.9238159,22.044626 L17.9482377,22.0686193 L17.9726595,22.0921841 L17.9975097,22.1393138 L18.0219314,22.1633071 L18.0463532,22.186872 L18.0712034,22.2108653 L18.0956252,22.2348586 L18.1200469,22.2584235 L18.1444687,22.2824168 L18.1688904,22.3059816 L18.1933122,22.3299749 L18.2177339,22.3535398 L18.2421557,22.3775331 L18.2665775,22.4010979 L18.2914277,22.4250912 L18.3158494,22.4490845 L18.3402712,22.4726494 L18.3651214,22.4966427 L18.3895432,22.5202075 L18.4139649,22.5442008 L18.46238,22.5677657 L18.4868017,22.591759 L18.5112235,22.6153239 L18.5356453,22.6393172 L18.560067,22.662882 L18.5844888,22.6868753 L18.609339,22.7108686 L18.6337607,22.7344335 L18.6581825,22.7584268 L18.6830327,22.7819916 L18.7074545,22.8059849 L18.7318762,22.8295498 L18.756298,22.8535431 L18.7807197,22.877108 L18.8291348,22.9246661 L18.8535566,22.948231 L18.8779783,22.9722243 L18.9024001,22.9957891 L18.9272503,23.0197824 L18.9516721,23.0433473 L18.9760938,23.0673406 L19.000944,23.0909055 L19.0253658,23.1148988 L19.0737808,23.1388921 L19.0982026,23.1624569 L19.1226244,23.1864502 L19.1470461,23.2100151 L19.1714679,23.2340084 L19.1958896,23.2575732 L19.2207398,23.2815665 L19.2451616,23.3051314 L19.2695834,23.3291247 L19.2944336,23.3526895 L19.3428486,23.4002477 L19.3672704,23.4238126 L19.4156854,23.4478059 L19.4401072,23.4713707 L19.464529,23.495364 L19.512944,23.5189289 L19.5377942,23.5429222 L19.5862093,23.566487 L19.6110595,23.5904803 L19.6594746,23.6144736 L19.6838963,23.6380385 L19.7323114,23.6620318 L19.7567331,23.6855967 L19.8051482,23.70959 L19.8539917,23.7331548 L19.9024067,23.7571481 L19.9512503,23.780713 L20.0485088,23.8282711 L20.1213456,23.851836 L20.1701892,23.8758293 L20.2434544,23.8993942 L20.3162912,23.9233875 L20.3891281,23.9469523 L20.4868151,23.9709456 L20.5845021,23.9945105 L20.6851883,23.9966527 L21.7074745,23.9966527 L21.8291548,23.9726594 L21.9504067,23.9490946 L22.023672,23.9251013 L22.0969372,23.9015364 L22.1697741,23.8775431 L22.2426109,23.8539783 L22.3158761,23.829985 L22.3647197,23.8064201 L22.4619782,23.7588619 L22.534815,23.7352971 L22.5592368,23.7113038 L22.6080803,23.6877389 L22.6569238,23.6637456 L22.7053389,23.6401808 L22.7297606,23.6161875 L22.7781757,23.5926226 L22.8025974,23.5686293 L22.8510125,23.544636 L22.8754343,23.5210711 L22.9242778,23.4970778 L22.9486995,23.473513 L22.9735497,23.4495197 L23.0219648,23.4259548 L23.0463866,23.4019615 L23.0708083,23.3783967 L23.1192234,23.3308385 L23.1676384,23.3072736 L23.1920602,23.2832803 L23.2169104,23.2597155 L23.2413322,23.2357222 L23.2657539,23.2121573 L23.2906041,23.188164 L23.3150259,23.1645992 L23.3394476,23.1406059 L23.3638694,23.0934762 L23.3882912,23.0694829 L23.4127129,23.045918 L23.4371347,23.0219247 L23.4615564,22.9983598 L23.4859782,22.9512302 L23.5108284,22.9272369 L23.5352502,22.903672 L23.5596719,22.8561138 L23.5845221,22.832549 L23.6089439,22.7854193 L23.6333657,22.761426 L23.6577874,22.7142963 L23.6822092,22.6907314 L23.7066309,22.6431733 L23.8038895,22.454226 L23.8287397,22.4070963 L23.8531615,22.3359733 L23.8775832,22.2888436 L23.9024334,22.218149 L23.9268552,22.147026 L23.951277,22.0523381 L23.9756987,21.9572218 L23.9949791,21.843682 L23.9949791,20.9203682 L23.9705573,20.8021155 Z M17.2785674,9.91772385 L17.2541456,10.1546577 L17.2297238,10.3204686 L17.1813088,10.6041038 L17.156887,10.7223565 L17.1324653,10.8170443 L17.1076151,10.9352971 L17.0831933,11.0299849 L17.0587715,11.1011079 L17.0339213,11.1957958 L17.0094996,11.2669188 L16.9850778,11.3616067 L16.9606561,11.4327297 L16.9362343,11.5034243 L16.9118125,11.5745473 L16.8873908,11.621677 L16.862969,11.6928 L16.8385473,11.7634946 L16.8141255,11.8110527 L16.7892753,11.8817473 L16.7648535,11.928877 L16.743431,12 L16.7185808,12.0471297 L16.6213222,12.236077 L16.5969004,12.2836351 L16.5240636,12.4254527 L16.4992134,12.4725824 L16.4756485,12.4970042 L16.4512268,12.5441339 L16.4263766,12.5912636 L16.3779615,12.6859514 L16.3535397,12.7099447 L16.3051247,12.8046326 L16.2807029,12.8281974 L16.2562812,12.8753271 L16.2318594,12.8993204 L16.2074377,12.9464501 L16.1825874,12.9935798 L16.1581657,13.0175731 L16.1337439,13.0647028 L16.1088937,13.0882677 L16.084472,13.112261 L16.0600502,13.1593907 L16.0356284,13.183384 L15.9627916,13.3252016 L15.9383699,13.3487664 L15.9139481,13.3727597 L15.8895264,13.4198894 L15.8646761,13.4438827 L15.8402544,13.4674476 L15.8158326,13.4914409 L15.7909824,13.5385706 L15.7665607,13.5621354 L15.7181456,13.6096936 L15.6937238,13.6568233 L15.6693021,13.6803882 L15.6448803,13.7043815 L15.6204586,13.7279463 L15.5960368,13.7519396 L15.5711866,13.7755045 L15.5467648,13.7994978 L15.5223431,13.8466275 L15.4974929,13.8706208 L15.4730711,13.8941856 L15.4486493,13.9181789 L15.4242276,13.9417438 L15.3998058,13.9657371 L15.3753841,13.989302 L15.3509623,14.0132953 L15.3265406,14.0368601 L15.2781255,14.0608534 L15.2588452,14.0822762 L15.2344234,14.105841 L15.2100017,14.1298343 L15.1851515,14.1533992 L15.1607297,14.1773925 L15.1363079,14.2009573 L15.1118862,14.2249506 L15.0874644,14.2485155 L15.0403347,14.2952167 L15.015913,14.3187816 L14.9914912,14.3427749 L14.9426477,14.3663397 L14.9182259,14.390333 L14.8938042,14.4138979 L14.868954,14.4378912 L14.8445322,14.4614561 L14.8201105,14.4854494 L14.7716954,14.5090142 L14.7232804,14.5565724 L14.6988586,14.5801372 L14.6500151,14.6041305 L14.6255933,14.6276954 L14.6011716,14.6516887 L14.5776067,14.6735397 L14.5291916,14.697533 L14.5047699,14.7210979 L14.4803481,14.7450912 L14.4319331,14.7690845 L14.4075113,14.7926494 L14.3830896,14.8166427 L14.3342461,14.8402075 L14.3098243,14.8642008 L14.2609808,14.8877657 L14.236559,14.911759 L14.188144,14.9353238 L14.1397289,14.982882 L14.0913139,15.0064469 L14.0424703,15.0304402 L14.0180486,15.054005 L13.9936268,15.0779983 L13.9447833,15.1015632 L13.9203616,15.1255565 L13.8719465,15.1491213 L13.7746879,15.1966795 L13.7502662,15.2202444 L13.7014227,15.2442377 L13.6525791,15.2678025 L13.6041641,15.2917958 L13.555749,15.3153607 L13.5313273,15.339354 L13.4829122,15.3629188 L13.4344972,15.3869121 L13.3856537,15.410477 L13.3368101,15.4344703 L13.2883951,15.4584636 L13.2155583,15.4820285 L13.1671432,15.5060217 L13.1182997,15.5295866 L13.0698847,15.5535799 L13.0210411,15.5771448 L12.9482043,15.6011381 L12.8997893,15.6247029 L12.8269525,15.6486962 L12.7781089,15.6726895 L12.7048437,15.6962544 L12.6564286,15.7202477 L12.5835918,15.7438125 L12.510755,15.7678058 L12.4374897,15.7913707 L12.3646529,15.815364 L12.2918161,15.8389289 L12.2189793,15.8629222 L12.1212923,15.8869155 L12.0484554,15.9104803 L11.9756186,15.9344736 L11.8779316,15.9580385 L11.780673,15.9820318 L11.5861559,16.0055966 L11.4400538,16.0295899 L11.3183735,16.0531548 L11.1482781,16.0771481 L10.9533325,16.100713 L10.7343935,16.1247063 L10.3209375,16.1486995 L9.80979439,16.1486995 L9.39633833,16.1247063 L9.17739941,16.100713 L8.98288225,16.0771481 L8.83678017,16.0531548 L8.69067808,16.0295899 L8.544576,16.0055966 L8.3496304,15.9820318 L8.25237183,15.9580385 L8.15511326,15.9344736 L8.08227645,15.9104803 L7.98501788,15.8869155 L7.8389158,15.8393573 L7.76607899,15.8157924 L7.69324218,15.7917991 L7.62040536,15.7682343 L7.54756855,15.744241 L7.49872504,15.7206761 L7.42588823,15.6966828 L7.35305141,15.673118 L7.30463636,15.6491247 L7.23179955,15.6251314 L7.18295603,15.6015665 L7.13454098,15.5775732 L7.06170417,15.5540083 L7.01286065,15.530015 L6.96401714,15.5064502 L6.91560208,15.4824569 L6.86675857,15.458892 L6.81834351,15.4348987 L6.7455067,15.4109054 L6.72108495,15.3873406 L6.67266989,15.3633473 L6.62382638,15.3397824 L6.57498286,15.3157891 L6.52656781,15.2922243 L6.47772429,15.268231 L6.42888078,15.2446661 L6.38046572,15.2206728 L6.35604397,15.1971079 L6.25835694,15.1495498 L6.23136402,15.1234142 L6.1825205,15.0994209 L6.13410545,15.0758561 L6.10968369,15.0518628 L6.06126864,15.0282979 L6.03684688,15.0043046 L5.98843182,14.9807397 L5.96401007,14.9567465 L5.93958831,14.9327532 L5.89117326,14.9091883 L5.8667515,14.885195 L5.81833644,14.8616301 L5.79391469,14.8376368 L5.76949293,14.814072 L5.72064941,14.7900787 L5.69622766,14.7665138 L5.64738414,14.7425205 L5.62296238,14.7185272 L5.59854063,14.6949624 L5.57411887,14.6709691 L5.52570382,14.6474042 L5.50128206,14.6234109 L5.4768603,14.599846 L5.42801679,14.5758527 L5.40359503,14.5522879 L5.35517997,14.5047297 L5.33075822,14.4811649 L5.28234316,14.4571716 L5.25792141,14.4336067 L5.23349965,14.4096134 L5.20907789,14.3860485 L5.18465613,14.3620552 L5.16023438,14.3384904 L5.13581262,14.3144971 L5.0869691,14.2909322 L5.06254735,14.2669389 L5.03812559,14.2429456 L5.01456068,14.2240937 L4.99013892,14.2001004 L4.96571716,14.1765356 L4.94129541,14.1525423 L4.91687365,14.1289774 L4.89245189,14.1049841 L4.86803013,14.0814193 L4.81961508,14.0338611 L4.79519332,14.0102962 L4.74677827,13.9863029 L4.72235651,13.9627381 L4.69793475,13.9387448 L4.673513,13.9151799 L4.64909124,13.8911866 L4.62466948,13.8676218 L4.60024772,13.8204921 L4.57582597,13.7964988 L4.55140421,13.7725055 L4.52698245,13.7489406 L4.50256069,13.7249473 L4.47813894,13.7013824 L4.45371718,13.6773891 L4.42929542,13.6302594 L4.40487367,13.6066946 L4.35645861,13.5591364 L4.33203685,13.5120067 L4.3076151,13.4884419 L4.28319334,13.4644486 L4.25877158,13.4408837 L4.23434982,13.393754 L4.20992807,13.3697607 L4.18550631,13.3457674 L4.16108455,13.2986377 L4.13666279,13.2750729 L4.11224104,13.2510796 L4.08781928,13.2039499 L4.06339752,13.180385 L4.03897577,13.1328268 L4.01455401,13.109262 L3.99013225,13.0621323 L3.96571049,13.0150026 L3.94128874,12.9910093 L3.89287368,12.8963214 L3.86845192,12.8723281 L3.82003687,12.7776403 L3.79775731,12.7575029 L3.77333556,12.7103732 L3.7489138,12.6628151 L3.72449204,12.6392502 L3.67607699,12.5445624 L3.65165523,12.4974327 L3.62723347,12.4498745 L3.60281172,12.4027448 L3.57838996,12.3556151 L3.5539682,12.3320502 L3.52954644,12.2609272 L3.50512469,12.2137975 L3.48070293,12.1666678 L3.43228787,12.07198 L3.40786612,12.0248503 L3.38344436,11.9772921 L3.3590226,11.9301624 L3.33460085,11.8594678 L3.31017909,11.8123382 L3.28575733,11.7412151 L3.26133557,11.6940854 L3.21377741,11.5501255 L3.18935566,11.479431 L3.1409406,11.3371849 L3.11651882,11.2664904 L3.09209706,11.1718025 L3.06767531,11.1006795 L3.04325355,11.0059916 L3.01883179,10.9117322 L2.99441003,10.8166159 L2.96998828,10.6987916 L2.94556652,10.5805389 L2.92114476,10.4382929 L2.896723,10.2964753 L2.87230125,10.1075281 L2.84787949,9.84745775 L2.84787949,8.97170209 L2.87230125,8.71163179 L2.896723,8.52268451 L2.92114476,8.35687363 L2.94556652,8.21505605 L2.96998828,8.09680333 L2.99441003,7.97855061 L3.01883179,7.88386275 L3.04325355,7.81273973 L3.06767531,7.71805187 L3.09209706,7.62336402 L3.11651882,7.552241 L3.14094058,7.48111797 L3.16536233,7.38643012 L3.18978409,7.33930042 L3.21420585,7.2681774 L3.23862761,7.19748284 L3.26304936,7.12635982 L3.28747112,7.05566526 L3.31189288,7.0081071 L3.33631464,6.9609774 L3.36073639,6.89028284 L3.38515815,6.84315314 L3.40957991,6.77203012 L3.43400167,6.72490042 L3.48241672,6.63021256 L3.50683848,6.58308286 L3.53126023,6.5355247 L3.57967529,6.44083685 L3.60409705,6.39370715 L3.6525121,6.29901929 L3.67693386,6.25188959 L3.70135562,6.20475989 L3.72577737,6.18076659 L3.75019913,6.1336369 L3.79861418,6.03894904 L3.82303594,6.01495574 L3.871451,5.92026788 L3.89587275,5.89627459 L3.92029451,5.84914489 L3.94471627,5.82558003 L3.96913803,5.77845033 L3.99355978,5.73132063 L4.01798154,5.70732733 L4.0424033,5.66019763 L4.06682505,5.63620433 L4.09124681,5.61263947 L4.11566857,5.56550977 L4.14009033,5.54151648 L4.16451208,5.49438678 L4.18893384,5.47082192 L4.2133556,5.44682862 L4.23777736,5.39969892 L4.26219911,5.37570562 L4.28662087,5.35214076 L4.31104263,5.32814746 L4.33546438,5.28101777 L4.35988614,5.2574529 L4.4083012,5.20989474 L4.43272295,5.16276505 L4.45714471,5.13920018 L4.48156647,5.11520689 L4.50598823,5.09164203 L4.53040998,5.06764873 L4.55483174,5.04408387 L4.5792535,5.02009057 L4.60367526,4.97296087 L4.62809701,4.94896757 L4.65251877,4.92540271 L4.67694053,4.90140941 L4.70136228,4.87784455 L4.72578404,4.85385126 L4.7502058,4.83028639 L4.77462756,4.8062931 L4.79904931,4.78272823 L4.82347107,4.75873494 L4.84789283,4.73474164 L4.87231459,4.71117678 L4.89673634,4.68718348 L4.9211581,4.66361862 L4.94557986,4.63962532 L4.97000162,4.61606046 L4.99442337,4.59206716 L5.01884513,4.5685023 L5.04326689,4.544509 L5.06768864,4.52051571 L5.0921104,4.49695085 L5.11653216,4.47295755 L5.16537567,4.44939269 L5.18979743,4.42539939 L5.21421919,4.40183453 L5.23864095,4.37784123 L5.2630627,4.35427637 L5.28748446,4.33028307 L5.33589951,4.30628977 L5.36032127,4.28272491 L5.38474303,4.25873162 L5.40916479,4.23516675 L5.43358654,4.21117346 L5.48243006,4.18760859 L5.50685182,4.1636153 L5.53127357,4.14005044 L5.55569533,4.11605714 L5.60453885,4.09206384 L5.6289606,4.06849898 L5.65338236,4.04450568 L5.70222587,4.02094082 L5.72664763,3.99694752 L5.77549115,3.97338266 L5.7999129,3.94938936 L5.84875642,3.9258245 L5.87317818,3.90183121 L5.92202169,3.87826634 L5.94644345,3.85427305 L5.99528696,3.83027975 L6.01970872,3.80671489 L6.06855223,3.78272159 L6.09297399,3.75915673 L6.14181751,3.73516343 L6.19023256,3.71159857 L6.21465432,3.68760527 L6.26306937,3.66404041 L6.31191289,3.64004711 L6.33633464,3.61605382 L6.38517816,3.59248895 L6.43359321,3.56849566 L6.48243673,3.54493079 L6.50685849,3.5209375 L6.555702,3.49737264 L6.60454551,3.47337934 L6.65296057,3.44981448 L6.70180408,3.42582118 L6.7506476,3.40225632 L6.79906265,3.37826302 L6.84790617,3.35426972 L6.89632122,3.33070486 L6.94516474,3.30671156 L7.01800155,3.2831467 L7.06684506,3.25915341 L7.11526012,3.23558854 L7.16410363,3.21159525 L7.23694044,3.18803038 L7.27764351,3.17389122 L7.35048033,3.14989792 L7.39932384,3.12633306 L7.47216065,3.10233977 L7.54499746,3.0787749 L7.59384098,3.05478161 L7.66667779,3.03121674 L7.7395146,3.00722345 L7.83677317,2.98365859 L7.98287526,2.93610043 L8.05571207,2.91253556 L8.15297064,2.88854227 L8.25022921,2.86497741 L8.34748777,2.84098411 L8.4451748,2.81741925 L8.56685513,2.79342595 L8.68853546,2.76986109 L8.81021578,2.74586779 L8.98073962,2.72187449 L9.15083503,2.69830963 L9.36977395,2.67431633 L9.7103932,2.65075147 L10.4160534,2.65075147 L10.7566727,2.67431633 L10.9756116,2.69830963 L11.145707,2.72187449 L11.3158024,2.74586779 L11.4374828,2.76986109 L11.5591631,2.79342595 L11.6808434,2.81741925 L11.8025237,2.84098411 L11.9002108,2.86497741 L11.9983264,2.88982762 L12.0711632,2.91382092 L12.144,2.93738578 L12.2168368,2.96137908 L12.3140954,2.98537238 L12.3869322,3.00893724 L12.459769,3.03293054 L12.5330343,3.0564954 L12.5814493,3.08048869 L12.6542861,3.10405356 L12.7271229,3.12804685 L12.7759664,3.15161172 L12.8500887,3.17389122 L12.8985038,3.19788452 L12.9713406,3.22144938 L13.0197556,3.24544268 L13.0685991,3.26900754 L13.1418644,3.29300084 L13.1902795,3.3165657 L13.2386945,3.340559 L13.2871096,3.36412386 L13.3355246,3.38811715 L13.3843682,3.41211045 L13.4332117,3.43567531 L13.4816267,3.45966861 L13.5300418,3.48323347 L13.5784568,3.50722677 L13.6268719,3.53079163 L13.6757154,3.55478493 L13.7001372,3.57834979 L13.7489807,3.60234309 L13.7973957,3.62590795 L13.8458108,3.64990125 L13.8702325,3.67389454 L13.9186476,3.69745941 L13.9674911,3.7214527 L13.9919129,3.74501756 L14.0403279,3.76901086 L14.0651781,3.79257572 L14.1135932,3.81656902 L14.1380149,3.84013388 L14.18643,3.86412718 L14.2108518,3.88812048 L14.2592668,3.91168534 L14.284117,3.93567864 L14.3325321,3.9592435 L14.3573823,3.98323679 L14.4057974,4.00680166 L14.4302191,4.03079495 L14.4786342,4.05435982 L14.5030559,4.07835311 L14.5274777,4.10191797 L14.5758927,4.12591127 L14.600743,4.14990457 L14.6251647,4.17346943 L14.6740082,4.19746273 L14.69843,4.22102759 L14.7228517,4.24502089 L14.7472735,4.26858575 L14.7716953,4.29257905 L14.8201103,4.31614391 L14.8685254,4.36370207 L14.8933756,4.38726693 L14.9177973,4.41126023 L14.9422191,4.43482509 L14.9910626,4.45881838 L15.0154844,4.48238325 L15.0399061,4.50637654 L15.0643279,4.52994141 L15.1127429,4.57749956 L15.1371647,4.60106443 L15.1615865,4.62505772 L15.1860082,4.64862259 L15.2108584,4.67261588 L15.2352802,4.69618074 L15.2597019,4.72017404 L15.2845522,4.7437389 L15.3329672,4.79129706 L15.357389,4.81486192 L15.3818107,4.83885522 L15.4062325,4.86242008 L15.4306542,4.88641338 L15.455076,4.90997824 L15.4794978,4.93397154 L15.5039195,4.9575364 L15.5287697,4.9815297 L15.5531915,5.005523 L15.5776132,5.02908786 L15.6024635,5.07621756 L15.6268852,5.10021085 L15.651307,5.12377572 L15.6757287,5.14776901 L15.7001505,5.17133387 L15.7245723,5.19532717 L15.748994,5.24245687 L15.7734158,5.26645017 L15.7978375,5.29001503 L15.8226877,5.31400833 L15.8471095,5.36113803 L15.8715313,5.38470289 L15.8963815,5.40869618 L15.9208032,5.45582588 L15.945225,5.47981918 L15.9696467,5.50338404 L15.9940685,5.55051374 L16.0184903,5.57450704 L16.042912,5.62163674 L16.0673338,5.6452016 L16.0917555,5.6923313 L16.1161773,5.71632459 L16.1410275,5.76345429 L16.1654493,5.78744759 L16.189871,5.83457729 L16.2147212,5.85814215 L16.239143,5.90527185 L16.2635648,5.92926515 L16.2879865,5.97639485 L16.3124083,6.00038814 L16.3608233,6.095076 L16.3852451,6.11864086 L16.4096668,6.16619902 L16.4340886,6.21332872 L16.4589388,6.26045842 L16.5073539,6.35514628 L16.5322041,6.37913957 L16.653456,6.61564501 L16.6778777,6.68676803 L16.7262928,6.78145589 L16.751143,6.82858559 L16.7755648,6.89970861 L16.7999865,6.94683831 L16.8248367,7.01753287 L16.8492585,7.06509103 L16.8736803,7.13578559 L16.898102,7.18291529 L16.9465171,7.32516131 L16.9709388,7.39585587 L17.0193539,7.53810188 L17.0437756,7.63278974 L17.0686258,7.7034843 L17.0930476,7.79860062 L17.1174694,7.89328848 L17.1423196,7.98797633 L17.1667413,8.08266419 L17.1911631,8.20091691 L17.2155849,8.34273449 L17.2400066,8.48498051 L17.2644284,8.67392779 L17.2888501,8.91086169 L17.2888502,9.91772385 L17.2785674,9.91772385 Z M22.2914544,21.4884954 L22.2666042,21.6307414 L22.2421824,21.701436 L22.2177607,21.772559 L22.1449238,21.9143766 L22.1205021,21.9383699 L22.0960803,21.9854996 L22.0716586,22.0094929 L22.0472368,22.0566226 L22.0223866,22.0801874 L21.9979648,22.1041807 L21.9735431,22.1277456 L21.9246996,22.1517389 L21.8762845,22.1753037 L21.8278695,22.199297 L21.5613724,22.1992971 L21.5129573,22.1753038 L21.4645423,22.1517389 L21.4401205,22.1277456 L21.4152703,22.1041808 L21.3908485,22.0801875 L21.3664268,22.0566226 L21.3415766,22.0326293 L21.3171548,21.9854996 L21.292733,21.9143766 L21.292733,21.7965523 L21.3171548,21.7254293 L21.3415766,21.6782996 L21.3664268,21.6311699 L21.3908485,21.6071766 L21.4152703,21.5836117 L21.4401205,21.5596184 L21.4885356,21.4649306 L21.4885356,21.323113 L21.4641138,21.25199 L21.4396921,21.2279967 L21.4148418,21.2044318 L21.3904201,21.1804385 L21.3659983,21.1568736 L21.3411481,21.1328803 L21.3167263,21.1093155 L21.2923046,21.0853222 L21.2678828,21.0617573 L21.2194678,21.0141992 L21.195046,20.9906343 L21.1706243,20.966641 L21.1462025,20.9430761 L21.1217807,20.9190828 L21.0969305,20.895518 L21.0725088,20.8715247 L21.048087,20.8479598 L21.0258075,20.8261088 L21.0013858,20.8021155 L20.976964,20.7785506 L20.9529707,20.7549858 L20.928549,20.7314209 L20.9041272,20.7074276 L20.8797054,20.6838628 L20.8552837,20.6598695 L20.8064402,20.6363046 L20.7580251,20.5887464 L20.7336034,20.5651816 L20.7087531,20.5411883 L20.6843314,20.5176234 L20.6599096,20.4936301 L20.6354879,20.4700653 L20.6110661,20.446072 L20.5866444,20.4225071 L20.5382293,20.3749489 L20.5138075,20.3513841 L20.4889573,20.3273908 L20.4645356,20.3038259 L20.4401138,20.2798326 L20.4152636,20.2562678 L20.3908418,20.2322745 L20.3664201,20.2087096 L20.318005,20.1611514 L20.26959,20.1375866 L20.2451682,20.1135933 L20.2207465,20.0900284 L20.1963247,20.0660351 L20.1714745,20.0424703 L20.1470527,20.018477 L20.122631,19.9949121 L20.0737875,19.9709188 L20.0493657,19.9473539 L20.0249439,19.9233607 L20.0005222,19.876231 L19.9761004,19.8522377 L19.9516787,19.8286728 L19.9272569,19.8046795 L19.9028352,19.7811146 L19.8779849,19.7571213 L19.8535632,19.7335565 L19.8291414,19.7095632 L19.8042912,19.6855699 L19.7798694,19.662005 L19.7554477,19.6380117 L19.7310259,19.6144469 L19.7066042,19.5904536 L19.6821824,19.5668887 L19.6577607,19.5428954 L19.6333389,19.5193305 L19.5849238,19.4953372 L19.5600736,19.4717724 L19.5116586,19.4242142 L19.4868084,19.4006494 L19.4623866,19.3766561 L19.4379648,19.3530912 L19.4135431,19.3290979 L19.3891213,19.305533 L19.3646996,19.2815397 L19.3402778,19.2579749 L19.2918628,19.2104167 L19.267441,19.1868519 L19.2425908,19.1628586 L19.218169,19.1392937 L19.1937473,19.1153004 L19.1688971,19.0917355 L19.120482,19.0441774 L19.0960602,19.0206125 L19.0716385,18.9966192 L19.0472167,18.9730544 L18.9988017,18.9490611 L18.9743799,18.9254962 L18.9495297,18.9015029 L18.9251079,18.8779381 L18.9006862,18.8539448 L18.875836,18.8303799 L18.8274209,18.7828217 L18.8029992,18.7592569 L18.7785774,18.7352636 L18.7541556,18.7116987 L18.7297339,18.6877054 L18.7053121,18.6641406 L18.6808904,18.6401473 L18.6564686,18.6165824 L18.6316184,18.5925891 L18.6071966,18.5685958 L18.5827749,18.5450309 L18.5579247,18.5210376 L18.5335029,18.4974728 L18.5090811,18.4734795 L18.4846594,18.4499146 L18.4602376,18.4259213 L18.4358159,18.4023565 L18.3874008,18.3783632 L18.3629791,18.3547983 L18.3385573,18.330805 L18.3137071,18.3068117 L18.3008536,18.2939582 L18.2764318,18.2699649 L18.2515816,18.2464 L18.2271598,18.2224067 L18.2027381,18.1988418 L18.1783163,18.1517121 L18.1538946,18.1277188 L18.1294728,18.0805891 L18.1294728,17.8676486 L18.1538946,17.7965255 L18.1783163,17.7729607 L18.2027381,17.725831 L18.2271598,17.7018377 L18.2760033,17.6778444 L18.3004251,17.6542795 L18.3492686,17.6302862 L18.4221054,17.6067214 L18.6410443,17.6067214 L18.6898879,17.6302862 L18.7383029,17.6542795 L18.786718,17.6778444 L18.835133,17.7254025 L18.8595548,17.7489674 L18.8839765,17.7729607 L18.9088268,17.7965256 L18.9332485,17.8205189 L18.9576703,17.8440837 L18.9825205,17.868077 L19.0069422,17.8920703 L19.031364,17.9156352 L19.0557858,17.9396285 L19.1042008,17.9631933 L19.1286226,17.9871866 L19.1530443,18.0107515 L19.1774661,18.0347448 L19.2023163,18.0583097 L19.2267381,18.082303 L19.2511598,18.1058678 L19.27601,18.1298611 L19.3004318,18.1538544 L19.3248535,18.1774193 L19.3732686,18.2014126 L19.3976904,18.2249774 L19.4221121,18.2489707 L19.4465339,18.2725356 L19.4709556,18.2965289 L19.4953774,18.3200937 L19.5202276,18.344087 L19.5446494,18.3680803 L19.5690711,18.3916452 L19.5939213,18.4156385 L19.6183431,18.4392034 L19.6427649,18.4631967 L19.6671866,18.4867615 L19.6916084,18.5107548 L19.7160301,18.5343197 L19.7404519,18.558313 L19.7648736,18.5818778 L19.8132887,18.629436 L19.8381389,18.6530009 L19.8625607,18.6769942 L19.8869824,18.700559 L19.9118326,18.7245523 L19.9362544,18.7481172 L19.9846695,18.7721105 L20.0090912,18.8192402 L20.033513,18.8432335 L20.0579347,18.8667983 L20.0823565,18.8907916 L20.1067782,18.9143565 L20.1316285,18.9383498 L20.1560502,18.9619147 L20.180472,18.9859079 L20.2053222,19.0094728 L20.2297439,19.0334661 L20.2541657,19.057031 L20.3025808,19.1045891 L20.3270025,19.128154 L20.3514243,19.1521473 L20.375846,19.1757122 L20.4002678,19.1997054 L20.4246895,19.2232703 L20.4735331,19.2472636 L20.4979548,19.2712569 L20.522805,19.2948218 L20.5472268,19.3188151 L20.5716486,19.3423799 L20.5960703,19.3663732 L20.6204921,19.3899381 L20.6449138,19.4139314 L20.6693356,19.4374962 L20.7177506,19.4850544 L20.7426009,19.5086193 L20.7670226,19.5326126 L20.7914444,19.5561774 L20.8158661,19.5801707 L20.8407163,19.6037356 L20.8651381,19.6277289 L20.8895599,19.6512937 L20.9139816,19.675287 L20.9384034,19.6988519 L20.9868184,19.7464101 L21.0112402,19.7699749 L21.0356619,19.7939682 L21.0845055,19.8175331 L21.1089272,19.8415264 L21.1337774,19.8650912 L21.1581992,19.8890845 L21.1826209,19.9126494 L21.231036,19.9602076 L21.2554578,19.9837724 L21.2798795,20.0077657 L21.3282946,20.0313306 L21.3527163,20.0553239 L21.3775665,20.0788887 L21.4019883,20.102882 L21.4264101,20.1264469 L21.4512603,20.1504402 L21.475682,20.1740051 L21.5240971,20.2215632 L21.5485188,20.2451281 L21.5729406,20.2691214 L21.5973624,20.2926862 L21.6217841,20.3166795 L21.6462059,20.3402444 L21.6710561,20.3642377 L21.6954778,20.3878026 L21.7198996,20.4117958 L21.7447498,20.4357891 L21.7691716,20.459354 L21.8175866,20.4833473 L21.8420084,20.5069122 L21.8664302,20.5309055 L21.8908519,20.5544703 L21.9152737,20.5784636 L21.9396954,20.6020285 L21.9641172,20.6260218 L21.9889674,20.6500151 L22.0133892,20.6971448 L22.0378109,20.7207096 L22.0626611,20.7447029 L22.0870829,20.7682678 L22.1115046,20.8153975 L22.1359264,20.8393908 L22.233185,21.0283381 L22.2576067,21.0758962 L22.2820285,21.1705841 L22.3068787,21.2884084 L22.3068787,21.4884954 L22.2914544,21.4884954 Z M13.8963682,5.30372553 L13.8719465,5.27973223 L13.8475247,5.25616737 L13.7991096,5.20860921 L13.7746879,5.18504435 L13.7258444,5.16105105 L13.7014226,5.13748619 L13.6770009,5.1134929 L13.6281573,5.08992803 L13.6037356,5.06593474 L13.5793138,5.04236987 L13.5308988,5.01837658 L13.506477,4.99481172 L13.458062,4.97081842 L13.4336402,4.94682512 L13.3847967,4.92326026 L13.3603749,4.89926696 L13.3115314,4.8757021 L13.2871097,4.8517088 L13.2386946,4.82814394 L13.2142728,4.80415064 L13.1658578,4.78058578 L13.1170143,4.75659249 L13.0925925,4.73259919 L13.0441775,4.70903433 L12.9953339,4.68504103 L12.9469189,4.66147617 L12.8985038,4.63748287 L12.8740821,4.61391801 L12.825667,4.58992471 L12.7768235,4.56635985 L12.72798,4.54236655 L12.6795649,4.51837326 L12.6311499,4.49480839 L12.5583131,4.4708151 L12.509898,4.44725023 L12.4610545,4.42325694 L12.412211,4.39969208 L12.3393742,4.37569878 L12.2909591,4.35213392 L12.144857,4.30457576 L12.0960135,4.2810109 L12.0231767,4.2570176 L11.9503399,4.23345274 L11.8775031,4.20945944 L11.8046663,4.18589458 L11.7074077,4.16190128 L11.6345709,4.13833642 L11.4400537,4.09077826 L11.3183734,4.0672134 L11.1966931,4.0432201 L11.0510194,4.01965524 L10.8804956,3.99566194 L10.4426178,3.97209708 L9.68811402,3.97209708 L9.2502362,3.99566194 L9.08014079,4.01965524 L8.93403871,4.0432201 L8.81235838,4.0672134 L8.69067806,4.09077826 L8.59341949,4.11477156 L8.49573246,4.13876485 L8.42289565,4.16232972 L8.32563708,4.18632301 L8.25280027,4.20988787 L8.17996346,4.23388117 L8.10712664,4.25744603 L8.05871159,4.28143933 L7.98587478,4.30500419 L7.91303797,4.32899749 L7.86419445,4.35299079 L7.79135764,4.37655565 L7.74294259,4.40054895 L7.67010577,4.42411381 L7.62126226,4.4481071 L7.57241874,4.47167197 L7.52400369,4.49566526 L7.47516018,4.51923013 L7.42631666,4.54322342 L7.37790161,4.56721672 L7.32905809,4.59078158 L7.28064304,4.61477488 L7.25622128,4.63833974 L7.23179952,4.66233304 L7.20737777,4.6858979 L7.18295601,4.7098912 L7.13454095,4.80457905 L7.1101192,4.89926691 L7.1101192,5.06507779 L7.13454095,5.15976565 L7.15896271,5.20689535 L7.18338447,5.23088864 L7.20780623,5.27801834 L7.23222798,5.30201164 L7.25664974,5.3255765 L7.30549326,5.3495698 L7.32991501,5.37313466 L7.37875853,5.39712796 L7.45159534,5.42069282 L7.74379953,5.42069282 L7.79221459,5.39712796 L7.8410581,5.37313466 L7.88947315,5.3495698 L7.93831667,5.3255765 L7.98716018,5.30201164 L8.03557524,5.27801834 L8.08441875,5.25445348 L8.15725556,5.23046018 L8.20609908,5.20646689 L8.27893589,5.18290203 L8.3517727,5.15890873 L8.40061622,5.13534387 L8.47345303,5.11135057 L8.54628984,5.08778571 L8.61912665,5.06379241 L8.71638522,5.04022755 L8.81364379,5.01623425 L8.91133082,4.99266939 L9.00858939,4.96867609 L9.13026972,4.94468279 L9.2763718,4.92111793 L9.42204545,4.89712464 L9.64098437,4.87355977 L10.4927467,4.87355977 L10.7116856,4.89712464 L10.881781,4.92111793 L11.0034614,4.94468279 L11.1251417,4.96867609 L11.246822,4.99266939 L11.3440806,5.01623425 L11.4169174,5.04022755 L11.5146044,5.06379241 L11.5874412,5.08778571 L11.660278,5.11135057 L11.7331149,5.13534387 L11.8059517,5.15890873 L11.8547952,5.18290203 L11.927632,5.20646689 L11.9764755,5.23046018 L12.0493123,5.25445348 L12.0977274,5.27801834 L12.1465709,5.30201164 L12.1949859,5.3255765 L12.2438295,5.3495698 L12.292673,5.37313466 L12.341088,5.39712796 L12.3899315,5.42069282 L12.4387751,5.44468612 L12.4631968,5.46867941 L12.5120403,5.49224428 L12.5604554,5.51623757 L12.6088704,5.53980244 L12.6332922,5.56379573 L12.6817072,5.58736059 L12.7301223,5.61135389 L12.7549725,5.63491875 L12.8033876,5.65891205 L12.8282378,5.68247691 L12.8766528,5.70647021 L12.9010746,5.73046351 L12.9494897,5.75402837 L12.9739114,5.77802167 L12.9983332,5.80158653 L13.0471767,5.82557982 L13.0715984,5.84914469 L13.0960202,5.87313798 L13.1448637,5.89670285 L13.1932788,5.944261 L13.2416938,5.96782587 L13.2901089,5.99181916 L13.3633742,6.01538403 L13.6307281,6.01538403 L13.7039934,5.99181916 L13.7528369,5.96782587 L13.7772587,5.944261 L13.8256737,5.92026771 L13.8500955,5.89627441 L13.8745172,5.87270955 L13.898939,5.84871625 L13.9473541,5.75402839 L13.9722043,5.68290537 L13.9722043,5.44639993 L13.9473541,5.39927023 L13.8963682,5.30372553 Z"
                      id="Shape"></path>
            </g>
        </g>
    </g>
</svg>