<?xml version="1.0" encoding="UTF-8"?>
<svg width="24px" height="21px" viewBox="0 0 24 21" version="1.1" xmlns="http://www.w3.org/2000/svg"
     xmlns:xlink="http://www.w3.org/1999/xlink">
    <!-- Generator: Sketch 45.1 (43504) - http://www.bohemiancoding.com/sketch -->
    <title>储蓄存款</title>
    <desc>Created with Sketch.</desc>
    <defs></defs>
    <g id="Page-1" stroke="none" stroke-width="1" fill="none" fill-rule="evenodd">
        <g id="1version-copy-2" transform="translate(-4745.000000, -1277.000000)" fill-rule="nonzero" fill="white">
            <g id="储蓄存款" transform="translate(4745.000000, 1277.000000)">
                <path d="M20.5610372,17.0540006 C19.9640719,17.3380576 20.5832847,19.2124149 19.8698229,19.8153304 C19.4458264,20.3312144 17.4638994,20.0219373 17.2488861,20.12045 C16.6363365,19.9835014 17.5113956,18.8604618 16.7912705,18.972741 C15.6345659,19.3066601 14.8357762,19.3493085 13.4899403,19.3493085 C13.0112612,19.3493085 12.539796,19.3265113 12.0755722,19.2814675 C11.9470434,19.2694356 12.0743607,19.985291 11.6371479,20.1197893 C10.8347787,20.1486162 10.0588146,20.1702571 9.73812581,20.1084182 C8.7207434,20.1360612 9.30091294,18.8508529 9.04027582,18.6508539 C8.88592004,18.6004411 8.73277577,18.5469998 8.58202695,18.4917137 C8.32857619,18.5589766 8.69791768,18.9937762 8.32675897,19.3024475 C7.70035978,19.5786851 5.63740009,19.5108441 5.39716569,19.0226031 C5.01700332,17.7224169 5.85120186,17.1615166 5.63500464,16.9453282 C4.79298646,16.3447806 4.05669896,15.6487213 3.45009673,14.878213 C2.2297059,13.5371955 1.4765951,14.6308299 0.366725865,13.6332853 C-0.311932924,12.7150079 0.197364054,10.2437648 0.419563668,9.95370565 C0.885632206,9.34955117 1.21774768,10.1302466 1.60270095,9.10450835 C1.76484885,6.84763636 2.87832503,4.79855518 4.62241313,3.218497 C3.77439253,2.35429426 2.16304601,1.07993389 3.95936615,0.0559852466 C5.70221521,-0.29775748 9.07865828,1.38260309 9.07865828,1.38260309 C9.07865828,1.38260309 11.088202,0.762837444 13.3001207,0.762837444 C19.5899671,0.762837444 23.9765787,4.90541037 23.9765787,10.015517 C23.9765511,13.0849676 23.3081074,15.2944004 20.5610372,17.0540006 Z M6.3832694,5.28919152 C5.66920187,5.28919152 5.09084954,5.86754766 5.09084954,6.58155842 C5.09084954,7.29562423 5.66920184,7.87455858 6.3832694,7.87455858 C7.09736448,7.87455858 7.67571678,7.29562426 7.67571678,6.58155842 C7.67571678,5.86754766 7.09733693,5.28919152 6.3832694,5.28919152 Z M18.0013912,4.51146961 C18.0013912,4.51146961 15.4591741,3.64366006 12.7926135,3.76739292 C12.3812,3.76739292 12.0479005,4.10070624 12.0479005,4.51146961 C12.0479005,4.9228387 12.3811724,5.25615202 12.7926135,5.25615202 C12.7926135,5.25615202 15.5215938,5.00810809 18.0013912,6.0002287 C18.4128047,6.0002287 18.7461041,5.66691538 18.7461041,5.25615202 C18.7461041,4.84478292 18.4128322,4.51146961 18.0013912,4.51146961 Z"
                      id="Shape"></path>
            </g>
        </g>
    </g>
</svg>