<?xml version="1.0" encoding="UTF-8"?>
<svg width="24px" height="24px" viewBox="0 0 24 24" version="1.1" xmlns="http://www.w3.org/2000/svg"
     xmlns:xlink="http://www.w3.org/1999/xlink">
    <!-- Generator: Sketch 45.1 (43504) - http://www.bohemiancoding.com/sketch -->
    <title>利息 copy 2</title>
    <desc>Created with Sketch.</desc>
    <defs></defs>
    <g id="Page-1" stroke="none" stroke-width="1" fill="none" fill-rule="evenodd">
        <g id="1version-copy-2" transform="translate(-4745.000000, -1348.000000)" fill-rule="nonzero" fill="#2F79B9">
            <g id="利息-copy-2" transform="translate(4745.000000, 1348.000000)">
                <path d="M21.0386882,19.6432562 L21.0386882,17.6258919 C22.0554471,15.9920379 22.6528027,14.0690757 22.6528027,12.0023549 C22.6528027,6.11299909 17.8834958,1.33896547 11.9999711,1.33896547 C6.11644638,1.33896547 1.34713951,6.11299909 1.34713951,12.0023549 C1.34713951,13.7590502 1.77917316,15.411854 2.53078104,16.873134 L2.53078104,19.0895442 C1.05083171,17.1116708 0.16349798,14.6638408 0.16349798,12.0023549 C0.16349798,5.45857801 5.46270211,0.154150858 11.9999711,0.154150858 C18.5372401,0.154150858 23.8364442,5.45857801 23.8364442,12.0023549 C23.8364442,14.9158306 22.7814185,17.5796889 21.0386882,19.6432562 L21.0386882,19.6432562 Z M7.26656108,15.1626706 C9.6606945,15.1626706 11.6018689,15.8707877 11.6018689,16.7439857 C11.6018689,17.6175886 9.6606945,18.3253297 7.26656108,18.3253297 C4.87205192,18.3253297 2.93125324,17.6175886 2.93125321,16.7439857 C2.93125321,15.8707877 4.8720519,15.1626706 7.26656108,15.1626706 Z M7.26618535,17.533486 C9.22551051,17.533486 10.8135549,17.179601 10.8135549,16.7427995 C10.8135549,16.305998 9.22551051,15.9521419 7.26618535,15.9521419 C5.30723591,15.9521419 3.71919149,16.305998 3.71919149,16.7427995 C3.71919149,17.179601 5.30723591,17.533486 7.26618535,17.533486 Z M3.85925268,18.5093892 C3.77716976,18.5761332 3.71919146,18.6452496 3.71919149,18.7175194 C3.71919149,19.1543209 5.30723591,19.508177 7.26618535,19.508177 C9.22551051,19.508177 10.8135549,19.1543209 10.8135549,18.7175194 C10.8135549,18.6452496 10.7555766,18.5761332 10.6738983,18.5097654 C10.9236443,18.3936649 11.1303835,18.2652977 11.28426,18.1262839 C11.4874442,18.3095333 11.6018689,18.5089842 11.6018689,18.7187056 C11.6018689,19.5923086 9.6606945,20.3000207 7.26656108,20.3000207 C4.87205192,20.3000207 2.93125324,19.5923086 2.93125321,18.7187056 C2.93125321,18.5089842 3.04567796,18.3095333 3.248891,18.1262839 C3.40273868,18.2649216 3.60950671,18.3936649 3.85925268,18.5093892 Z M3.85925268,20.0891421 C3.77716976,20.1558861 3.71919146,20.2250024 3.71919149,20.2972723 C3.71919149,20.7340737 5.30723591,21.0879298 7.26618535,21.0879298 C9.22551051,21.0879298 10.8135549,20.7340737 10.8135549,20.2972723 C10.8135549,20.2250024 10.7555766,20.1558861 10.6738983,20.0895182 C10.9236443,19.9734177 11.1303835,19.8450505 11.28426,19.7060367 C11.4874442,19.8892861 11.6018689,20.088737 11.6018689,20.2984584 C11.6018689,21.1720614 9.6606945,21.8798025 7.26656108,21.8798025 C4.87205192,21.8798025 2.93125324,21.1720614 2.93125321,20.2984584 C2.93125321,20.088737 3.04567796,19.8892862 3.248891,19.7060367 C3.40273868,19.8446744 3.60950671,19.9734177 3.85925268,20.0891421 Z M3.85925268,22.0638331 C3.77716976,22.1305771 3.71919146,22.1996934 3.71919149,22.2719633 C3.71919149,22.7087648 5.30723591,23.0626208 7.26618535,23.0626208 C9.22551051,23.0626208 10.8135549,22.7087648 10.8135549,22.2719633 C10.8135549,22.1996934 10.7555766,22.1305771 10.6738983,22.0642381 C10.9236443,21.9481377 11.1303835,21.8197705 11.28426,21.6807566 C11.4874442,21.8640061 11.6018689,22.063457 11.6018689,22.2731784 C11.6018689,23.1467814 9.6606945,23.8545224 7.26656108,23.8545224 C4.87205192,23.8545224 2.93125324,23.1467814 2.93125321,22.2731784 C2.93125321,22.063457 3.04567796,21.8640061 3.248891,21.6807566 C3.40273868,21.8193654 3.60950671,21.9481087 3.85925268,22.0638331 Z M11.1390542,3.16989795 C11.1390542,2.81329344 11.4282809,2.52378008 11.784937,2.52378008 C12.1412173,2.52378008 12.4304151,2.81329342 12.4304151,3.16989795 C12.4304151,3.52693644 12.1412173,3.81642084 11.784937,3.81642084 C11.4282809,3.81642084 11.1390542,3.52693644 11.1390542,3.16989795 L11.1390542,3.16989795 Z M19.4963964,11.8408037 L19.4963964,12.5588153 C19.4963964,12.6875586 19.3918562,12.7922312 19.2632115,12.7922313 L11.4440616,12.7922313 C11.3822148,12.7922389 11.3228988,12.7676494 11.2791665,12.7238738 C11.2354342,12.6800981 11.2108691,12.6207234 11.2108767,12.5588153 L11.2108767,12.4549527 L8.33658713,7.47160272 C8.25175846,7.32469068 8.3361825,7.11734162 8.52477089,7.00832929 L8.86645552,6.81087466 C9.05544855,6.70186233 9.27678342,6.7322689 9.36161206,6.87918094 L12.0887305,11.6074167 L19.2632115,11.6074167 C19.3250557,11.6074013 19.3843717,11.6319844 19.4281048,11.6757554 C19.4718379,11.7195265 19.496404,11.7788982 19.4963964,11.8408037 L19.4963964,11.8408037 Z M16.341204,18.7171144 C18.7353085,18.7171144 20.6764829,19.4252316 20.6764829,20.2984584 C20.6764829,21.1720614 18.7353085,21.8798025 16.341204,21.8798025 C13.9466659,21.8798025 12.0058961,21.1720614 12.0058961,20.2984584 C12.0058961,19.4252316 13.9466659,18.7171144 16.341204,18.7171144 Z M16.3407993,21.0879298 C18.3001245,21.0879298 19.8881978,20.7340737 19.8881978,20.2972723 C19.8881978,19.8604708 18.3001245,19.5065858 16.3407993,19.5065858 C14.3818499,19.5065858 12.7938054,19.8604708 12.7938054,20.2972723 C12.7938054,20.7340737 14.3818499,21.0879298 16.3407993,21.0879298 Z M20.3932101,12.0023549 C20.3932101,11.6453164 20.6820322,11.355832 21.0386882,11.355832 C21.3953732,11.355832 21.6841664,11.6453164 21.6841664,12.0023549 C21.6841664,12.3593644 21.3953732,12.6484727 21.0386882,12.6484727 C20.6820322,12.6484727 20.3932101,12.3593644 20.3932101,12.0023549 L20.3932101,12.0023549 Z M12.9338667,22.0638331 C12.8518126,22.1305771 12.7938054,22.1996934 12.7938054,22.2719633 C12.7938054,22.7087648 14.3818499,23.0626208 16.3407993,23.0626208 C18.3001245,23.0626208 19.8881978,22.7087648 19.8881978,22.2719633 C19.8881978,22.1996934 19.8301906,22.1305771 19.7485123,22.0642381 C19.9982583,21.9481377 20.2049974,21.8197705 20.358874,21.6807566 C20.562087,21.8640061 20.6764829,22.063457 20.6764829,22.2731784 C20.6764829,23.1467814 18.7353085,23.8545224 16.341204,23.8545224 C13.9466659,23.8545224 12.0058961,23.1467814 12.0058961,22.2731784 C12.0058961,22.063457 12.1203208,21.8640061 12.323505,21.6807566 C12.4773816,21.8193654 12.6841207,21.9481087 12.9338667,22.0638331 Z"
                      id="Shape"></path>
                <path d="M16.341204,23.9991489 C15.16658,23.9991489 14.0603103,23.8315801 13.2261281,23.5273119 C12.3460778,23.2063215 11.8613839,22.7609275 11.8613839,22.2731205 C11.8613839,22.0273799 11.9843349,21.7919098 12.2267974,21.5732487 L12.3234761,21.4860504 L12.4202125,21.5731909 C12.5615744,21.7005455 12.7548161,21.8214485 12.9945907,21.9325149 L13.2047403,22.029868 L13.0250827,22.1760568 C12.9439247,22.2420775 12.9383754,22.2725419 12.9383176,22.2728601 C12.9383755,22.3308091 13.104709,22.5206259 13.8641494,22.6899017 C14.524021,22.8369873 15.40358,22.9179943 16.3408282,22.9179944 C17.2782499,22.9179944 18.1579534,22.8369873 18.8178827,22.6899017 C19.577381,22.5206259 19.7437145,22.3308091 19.7437145,22.2719633 C19.7435989,22.2719633 19.7374138,22.2414989 19.6574697,22.1765197 L19.477841,22.0305623 L19.6876727,21.9330067 C19.9286901,21.8209856 20.1219318,21.6999669 20.2620797,21.5733355 L20.3588451,21.4859347 L20.4556683,21.5732487 C20.6981308,21.7919099 20.8210529,22.0273799 20.8210529,22.2731205 C20.8210529,22.7608986 20.3363301,23.2063215 19.4561642,23.5273119 C18.6218664,23.8315801 17.5156256,23.9991489 16.341204,23.9991489 L16.341204,23.9991489 Z M12.3319445,21.8757811 C12.2113924,22.0084879 12.1504083,22.1417734 12.1504083,22.2731495 C12.1504083,22.6251829 12.5785401,22.9832339 13.3250901,23.2555044 C14.1283755,23.5484895 15.1995288,23.7098381 16.341204,23.7098381 C17.4827635,23.7098381 18.553859,23.5484894 19.3571733,23.2555044 C20.1037811,22.983234 20.5319707,22.625154 20.5319707,22.2731495 C20.5319707,22.1417734 20.4710444,22.0085458 20.3505501,21.8758678 C20.2458077,21.9567881 20.1234347,22.0345548 19.9844429,22.1084738 C20.0132298,22.1559786 20.0327389,22.2104269 20.0327389,22.2719633 C20.0327389,23.0118179 17.6177668,23.2073052 16.3408282,23.2073052 C15.0640052,23.2073052 12.6493222,23.0118179 12.6493222,22.2719633 C12.6493222,22.210369 12.6689469,22.1557761 12.6978494,22.1081844 C12.5592911,22.0346127 12.4370049,21.9569038 12.3319445,21.8757811 L12.3319445,21.8757811 Z M7.26656108,23.9991489 C6.091966,23.9991489 4.9856674,23.8315801 4.15151415,23.5273119 C3.27143494,23.2063215 2.78674104,22.7609275 2.78674104,22.2731205 C2.78674104,22.0273799 2.90969202,21.7918809 3.15218345,21.5732487 L3.248891,21.4860504 L3.34559857,21.5732198 C3.48693149,21.7005455 3.68017319,21.8214485 3.91997672,21.9325149 L4.13018414,22.0298969 L3.95038208,22.1760857 C3.86922404,22.2420485 3.86370368,22.2725419 3.86364587,22.2728312 C3.86370368,22.3308091 4.0300372,22.5206259 4.78947764,22.6899017 C5.4493492,22.8369873 6.32893709,22.9179943 7.26618535,22.9179944 C8.203607,22.9179944 9.08328162,22.8369873 9.74318205,22.6899017 C10.5026803,22.5206259 10.6690138,22.3308091 10.6690138,22.2719633 C10.6688982,22.2719633 10.6627709,22.2414989 10.5827979,22.1765197 L10.4031403,22.0305623 L10.6130298,21.9330067 C10.8539894,21.8210145 11.0472312,21.6999958 11.187408,21.5733355 L11.2841733,21.4859347 L11.3809965,21.5732487 C11.623459,21.7919388 11.74641,22.0273799 11.74641,22.2731205 C11.74641,22.7608986 11.2616872,23.2063215 10.3814924,23.5273119 C9.54725244,23.8315801 8.44104052,23.9991489 7.26656108,23.9991489 L7.26656108,23.9991489 Z M3.25730162,21.8757811 C3.13674955,22.0084879 3.07576541,22.1417734 3.07576541,22.2731495 C3.07576541,22.6251829 3.50389723,22.9832339 4.25044719,23.2555044 C5.05373263,23.5484895 6.12488588,23.7098381 7.26656108,23.7098381 C8.40812065,23.7098381 9.4792161,23.5484894 10.2825594,23.2555044 C11.0291671,22.983234 11.4573567,22.625154 11.4573567,22.2731495 C11.4573567,22.1418023 11.3964304,22.0085458 11.2759072,21.8758678 C11.1711648,21.9567881 11.048763,22.0345548 10.9098,22.1084738 C10.938558,22.1559786 10.9580671,22.2104269 10.9580671,22.2719633 C10.9580671,23.0118179 8.54312393,23.2073052 7.26621424,23.2073052 C5.98939126,23.2073052 3.57467929,23.0118179 3.57467929,22.2719633 C3.57467929,22.210369 3.59430404,22.1557471 3.62320648,22.1081555 C3.4846771,22.0346127 3.36233309,21.9568749 3.25730162,21.8757811 L3.25730162,21.8757811 Z M16.341204,18.8617698 C15.1996155,18.8617698 14.1284622,19.0231763 13.3250901,19.3162482 C12.578569,19.5885765 12.1504083,19.9465697 12.1504083,20.2984584 C12.1504083,20.6504919 12.5785401,21.0085429 13.3250901,21.2808133 C14.1283466,21.5737695 15.1995288,21.7351181 16.341204,21.7351181 C17.4827635,21.7351181 18.553859,21.5737695 19.3571733,21.2808133 C20.1037811,21.008514 20.5319707,20.6504629 20.5319707,20.2984584 C20.5319707,19.9465986 20.1037811,19.5885765 19.3571733,19.3162482 C18.5536855,19.0231763 17.482619,18.8617698 16.341204,18.8617698 Z M7.26656108,22.0244289 C6.09193711,22.0244289 4.9856674,21.8568601 4.15151415,21.5526209 C3.27143494,21.2316305 2.78674104,20.7862365 2.78674104,20.2984295 C2.78674104,20.05266 2.90969202,19.817161 3.15218345,19.5985288 L3.248891,19.5113305 L3.34559857,19.5984998 C3.48690259,19.7257966 3.68014429,19.8466996 3.92000562,19.9578528 L4.13015525,20.0552059 L3.95038208,20.2013947 C3.86922404,20.2673575 3.86370368,20.2978509 3.86364587,20.2981402 C3.86370368,20.3561181 4.0300372,20.545906 4.78947764,20.7151817 C5.4493781,20.8622674 6.32896598,20.9432744 7.26618535,20.9432744 C8.203607,20.9432744 9.08328162,20.8622674 9.74318205,20.7151817 C10.5026803,20.545906 10.6690138,20.3561181 10.6690138,20.2972723 C10.6688982,20.2972723 10.6627709,20.2668078 10.5827979,20.2018286 L10.4031692,20.0558713 L10.6130009,19.9583157 C10.8540183,19.8462945 11.04726,19.7252469 11.187408,19.5986156 L11.2841733,19.5112148 L11.3809965,19.5985288 C11.623459,19.8172188 11.74641,20.05266 11.74641,20.2984295 C11.74641,20.7861786 11.2616872,21.2316016 10.3814924,21.5526209 C9.54725244,21.8568601 8.44104052,22.0244289 7.26656108,22.0244289 L7.26656108,22.0244289 Z M3.25730162,19.9010611 C3.13674955,20.033768 3.07576541,20.1670535 3.07576541,20.2984584 C3.07576541,20.6504919 3.50389723,21.0085429 4.25044719,21.2808133 C5.05373263,21.5737695 6.12488588,21.7351181 7.26656108,21.7351181 C8.40812065,21.7351181 9.479245,21.5737695 10.2825594,21.2808133 C11.0291671,21.008514 11.4573567,20.6504629 11.4573567,20.2984584 C11.4573567,20.1670824 11.3964304,20.0338258 11.2759072,19.9011479 C11.1711648,19.9820971 11.048763,20.0598349 10.9097712,20.1337538 C10.938558,20.1812586 10.9580671,20.2357359 10.9580671,20.2972723 C10.9580671,21.0370979 8.54312393,21.2325852 7.26621424,21.2325852 C5.98939126,21.2325852 3.57467929,21.0370979 3.57467929,20.2972723 C3.57467929,20.2356491 3.59430404,20.1810561 3.62320648,20.1334645 C3.48464818,20.0598638 3.36236198,19.9821549 3.25730162,19.9010611 Z M16.3407993,21.2325852 C15.0639763,21.2325852 12.6492932,21.0370979 12.6492933,20.2972723 C12.6492933,19.5574177 15.0639763,19.3619304 16.3407993,19.3619304 C17.6177668,19.3619304 20.03271,19.5574177 20.03271,20.2972723 C20.03271,21.0370979 17.6177668,21.2325852 16.3407993,21.2325852 L16.3407993,21.2325852 Z M16.3407993,19.6512412 C15.4035511,19.6512412 14.5239921,19.7322482 13.8641205,19.8793338 C13.1046801,20.0486385 12.9383465,20.2384264 12.9383465,20.2972723 C12.9383465,20.3561181 13.1046801,20.5459349 13.8641205,20.7151817 C14.5239921,20.8622674 15.40358,20.9432744 16.3407993,20.9432744 C17.278221,20.9432744 18.1578956,20.8622674 18.8178538,20.7151817 C19.5773521,20.545906 19.7436856,20.3561181 19.7436856,20.2972723 C19.7436856,20.2384265 19.5773521,20.0486096 18.8178538,19.8793338 C18.1578955,19.7322482 17.278221,19.6512412 16.3407993,19.6512412 Z M7.26656108,20.4446761 C6.09193711,20.4446761 4.9856674,20.2771362 4.15151415,19.9728681 C3.27143494,19.6518777 2.78674104,19.2064837 2.78674104,18.7186767 C2.78674104,18.4729361 2.90969202,18.2374371 3.15218345,18.0188049 L3.248891,17.9316066 L3.34559857,18.0187759 C3.48690259,18.1460727 3.68014429,18.2669757 3.92000562,18.3781289 L4.13021304,18.475511 L3.95035319,18.6216997 C3.86922404,18.6876337 3.86370368,18.7180981 3.86364587,18.7183874 C3.86370368,18.7763653 4.0300372,18.9661532 4.78947764,19.1354579 C5.4493492,19.2825145 6.32893709,19.3635216 7.26618535,19.3635216 C8.203607,19.3635216 9.08328162,19.2825145 9.74321095,19.1354579 C10.5026803,18.9661821 10.6690138,18.7763653 10.6690138,18.7175194 C10.6688982,18.7175194 10.662742,18.687055 10.5827979,18.6220758 L10.4031403,18.4761185 L10.6130298,18.3785629 C10.8539317,18.2665996 11.0471733,18.1455809 11.1874369,18.0188917 L11.2841733,17.9314909 L11.3809965,18.0188049 C11.623459,18.2374949 11.74641,18.4729361 11.74641,18.7186767 C11.74641,19.2064258 11.2616872,19.6518777 10.3814924,19.9728681 C9.54725244,20.2771362 8.44104052,20.4446761 7.26656108,20.4446761 L7.26656108,20.4446761 Z M3.25730162,18.3213083 C3.13674955,18.4540151 3.07576541,18.5873006 3.07576541,18.7186767 C3.07576541,19.0707101 3.50389723,19.4287612 4.25044719,19.7010316 C5.05373263,19.9939877 6.12488588,20.1553364 7.26656108,20.1553364 C8.40812065,20.1553364 9.479245,19.9939877 10.2825594,19.7010316 C11.0291671,19.4287322 11.4573567,19.0706812 11.4573567,18.7186767 C11.4573567,18.5873296 11.3964015,18.454073 11.2758783,18.3213661 C11.1711359,18.4023442 11.048763,18.4800821 10.9098,18.554001 C10.938558,18.6015058 10.9580671,18.6559541 10.9580671,18.7174905 C10.9580671,19.4573162 8.54312393,19.6528035 7.26621424,19.6528035 C5.98939126,19.6528035 3.57467929,19.4573162 3.57467929,18.7174905 C3.57467929,18.6558673 3.59430404,18.6012744 3.62320648,18.5537117 C3.48464818,18.480111 3.36233309,18.402431 3.25730162,18.3213083 L3.25730162,18.3213083 Z M20.8941761,20.0384259 L20.8941761,17.5845493 L20.9160263,17.549427 C21.9576991,15.8755324 22.5082905,13.9574017 22.5082905,12.0023838 C22.5082905,6.20233827 17.794274,1.48364982 11.9999711,1.48364982 C6.20566821,1.48364982 1.4916806,6.20233827 1.4916806,12.0023838 C1.4916806,13.6841187 1.88452253,15.300614 2.65928129,16.8069108 L2.67532213,16.8380695 L2.67532213,19.5240023 L2.41514238,19.1762507 C0.847589774,17.0812932 0.019014701,14.6005975 0.019014701,12.0023549 C0.019014701,10.3833426 0.335814321,8.81270302 0.960569418,7.33406436 C1.5639945,5.90593934 2.42785946,4.62339554 3.52808856,3.52204707 C4.62834656,2.42069863 5.90959162,1.55600644 7.33633155,0.95198331 C8.81350624,0.326580107 10.3825618,0.00949543707 11.9999711,0.00949543707 C13.6173804,0.00949543707 15.1864649,0.326580107 16.6636106,0.95198331 C18.0903217,1.55600644 19.3715956,2.42069863 20.4718825,3.52204707 C21.5721116,4.62339551 22.4359766,5.90593931 23.0394017,7.33406436 C23.6641568,8.81270305 23.9809564,10.3833426 23.9809564,12.0023549 C23.9809564,13.4434699 23.7271063,14.8531369 23.2264583,16.1922121 C22.7436141,17.4836377 22.0446665,18.6761191 21.1490667,19.7366168 L20.8941761,20.0384259 Z M21.1832004,17.6671186 L21.1832004,19.2372663 C22.8037312,17.1781833 23.691932,14.624755 23.691932,12.0023549 C23.691932,5.54898762 18.44692,0.298806256 11.9999711,0.298806256 C5.55302224,0.298806256 0.308039073,5.54898762 0.308039073,12.0023549 C0.308039073,14.3897767 1.02510855,16.6756504 2.38629776,18.6414596 L2.38629776,16.9080249 C1.60081621,15.3692385 1.20265623,13.7189806 1.20265623,12.0023549 C1.20265623,10.5433025 1.4881545,9.12784931 2.05120289,7.79528366 C2.59500226,6.50825552 3.37351832,5.35240094 4.36507426,4.35986229 C5.35663019,3.36732364 6.51131147,2.58806495 7.79706532,2.04369771 C9.1283116,1.4800913 10.5423634,1.19431007 11.9999711,1.19431005 C13.4575788,1.19431003 14.8716306,1.48009127 16.2028769,2.04369771 C17.4886307,2.58806495 18.6433409,3.36732366 19.6348968,4.35986229 C20.6264528,5.35240091 21.4049399,6.50822659 21.9487682,7.79528366 C22.5118166,9.12784931 22.7973149,10.5433314 22.7973149,12.0023549 C22.7973149,13.9977605 22.2392666,15.9556426 21.1832004,17.6671186 L21.1832004,17.6671186 Z M7.26656108,15.307297 C6.1250015,15.307297 5.05384826,15.4687036 4.25047609,15.7617754 C3.50392612,16.0341037 3.07576541,16.3920969 3.07576541,16.7439567 C3.07576541,17.0959901 3.50389723,17.4540412 4.25044719,17.7263116 C5.05373263,18.0192967 6.12488588,18.1806454 7.26656108,18.1806454 C8.40812065,18.1806454 9.4792161,18.0192967 10.2825594,17.7263116 C11.0291671,17.4540412 11.4573567,17.0959612 11.4573567,16.7439567 C11.4573567,16.3920969 11.0291671,16.0341037 10.2825594,15.7617754 C9.4791005,15.4687325 8.40800505,15.307297 7.26656108,15.307297 Z M7.26618535,17.6781414 C5.98936237,17.6781414 3.57465039,17.482654 3.57465039,16.7427995 C3.57465039,16.0029738 5.98936234,15.8074865 7.26618535,15.8074865 C8.54312395,15.8074865 10.9580382,16.0029739 10.9580382,16.7427995 C10.9580671,17.482654 8.54312393,17.6781414 7.26618535,17.6781414 Z M7.26618535,16.0967974 C6.32893711,16.0967974 5.44937812,16.1778044 4.78947764,16.32489 C4.03003718,16.4941658 3.86370366,16.6839537 3.86370366,16.7427995 C3.86370366,16.8016453 4.03003718,16.9914911 4.78947764,17.1607379 C5.4493492,17.3078235 6.32893709,17.3888306 7.26618535,17.3888306 C8.203607,17.3888306 9.08328162,17.3078235 9.74318205,17.1607379 C10.5026803,16.9914622 10.6690138,16.8016453 10.6690138,16.7427995 C10.6690138,16.6839536 10.5026803,16.4941368 9.74318205,16.32489 C9.08328159,16.1777755 8.203607,16.0967974 7.26618535,16.0967974 Z M19.2632115,12.9368867 L11.4440616,12.9368867 C11.2357906,12.9368867 11.0663645,12.7672927 11.0663645,12.5588153 L11.0663645,12.4937204 L8.21143956,7.54393042 C8.14854784,7.43503383 8.14230492,7.29917347 8.19430042,7.17124022 C8.24190273,7.05412719 8.33361018,6.95179797 8.4525437,6.88305771 L8.79422832,6.68560308 C9.05174904,6.53698411 9.36236355,6.59146133 9.48675964,6.80679537 L12.1721718,11.4627612 L19.2632404,11.4627612 C19.4714825,11.4627612 19.6409086,11.6323553 19.6409085,11.8408037 L19.6409085,12.5587864 C19.6409085,12.7672927 19.4714535,12.9368867 19.2632115,12.9368867 Z M9.10149013,6.89052193 C9.04995709,6.89052193 8.99177648,6.90553715 8.9386249,6.93620411 L8.59702698,7.13360087 C8.53439539,7.16979366 8.48517455,7.22328723 8.4619948,7.28028147 C8.45135872,7.3064641 8.43716761,7.35671738 8.46167686,7.39921715 L11.35536,12.4161851 L11.35536,12.5588153 C11.3554237,12.60781 11.3950865,12.6475121 11.4440327,12.6475758 L19.2631826,12.6475758 C19.3121175,12.6474962 19.3517627,12.6077987 19.3518264,12.5588153 L19.3518264,11.8408326 C19.3517786,11.7918473 19.3121194,11.7521488 19.2631826,11.752101 L12.0052891,11.752101 L9.23646451,6.95153759 C9.21319806,6.9111498 9.16189623,6.89052193 9.10149013,6.89052193 L9.10149013,6.89052193 Z M21.0386882,12.7931281 C20.6030996,12.7931281 20.2486979,12.4383752 20.2486979,12.0023549 C20.2486979,11.5661031 20.6030996,11.2111476 21.0386882,11.2111476 C21.4742769,11.2111476 21.8286786,11.5661031 21.8286786,12.0023549 C21.8286786,12.4383752 21.4742769,12.7931281 21.0386882,12.7931281 Z M21.0386882,11.5004584 C20.7624387,11.5004584 20.5377223,11.7256001 20.5377223,12.0023549 C20.5377223,12.2788781 20.7624387,12.5038173 21.0386882,12.5038173 C21.3149377,12.5038173 21.5396542,12.2788781 21.5396542,12.0023549 C21.5396542,11.7256291 21.3149377,11.5004584 21.0386882,11.5004584 L21.0386882,11.5004584 Z M11.784937,3.96107624 C11.3491171,3.96107624 10.994542,3.60614973 10.994542,3.16989795 C10.994542,2.73387761 11.3491171,2.37912469 11.784937,2.37912466 C12.2205256,2.37912466 12.5749273,2.73387758 12.5749273,3.16989795 C12.5749273,3.60614973 12.2205256,3.96107627 11.784937,3.96107624 Z M11.784937,2.6684355 C11.5084851,2.6684355 11.2835664,2.89337466 11.2835664,3.16989795 C11.2835664,3.44662375 11.5084562,3.67176545 11.784937,3.67176542 C12.0611865,3.67176542 12.2859029,3.44662373 12.2859029,3.16989795 C12.2859029,2.89337466 12.0611865,2.6684355 11.784937,2.6684355 L11.784937,2.6684355 Z"
                      id="Shape"></path>
            </g>
        </g>
    </g>
</svg>