<?xml version="1.0" encoding="UTF-8"?>
<svg width="24px" height="24px" viewBox="0 0 24 24" version="1.1" xmlns="http://www.w3.org/2000/svg"
     xmlns:xlink="http://www.w3.org/1999/xlink">
    <!-- Generator: Sketch 45.1 (43504) - http://www.bohemiancoding.com/sketch -->
    <title>Group 18</title>
    <desc>Created with Sketch.</desc>
    <defs></defs>
    <g id="Page-1" stroke="none" stroke-width="1" fill="none" fill-rule="evenodd">
        <g id="1version-copy-2" transform="translate(-4352.000000, -1420.000000)" fill-rule="nonzero" fill="white">
            <g id="Group-18" transform="translate(4352.000000, 1420.000000)">
                <g id="基金对接" transform="translate(0.000000, 13.600000)">
                    <path d="M0.025585168,2.52126272 L4.43958285,0.526203646 C4.43958285,0.526203646 6.19568946,-0.091314646 7.66702201,0.858713501 C9.13835458,1.80874162 10.5147624,2.90127398 10.9893859,3.09127959 C11.4640093,3.32878661 12.6031055,3.75629927 14.1693627,3.75629927 C15.6881576,3.75629927 16.6374044,3.80380069 16.6374044,4.61132459 C16.6374044,5.41884849 15.3559212,5.60885412 14.359212,5.60885412 C13.3625029,5.60885412 11.4165469,5.65635554 10.2299884,5.41884851 C9.04342988,5.18134149 7.85687138,4.84883164 7.85687138,4.84883164 C7.85687138,4.84883164 8.90104288,6.27387383 10.5622248,6.51138085 L15.5457706,6.51138085 C15.5457706,6.51138085 17.6341135,6.27387383 17.6341135,4.51632178 C17.6341135,2.75876974 15.1660718,2.75876974 15.1660719,2.75876974 L13.4099652,2.66376693 L15.6881576,1.33372755 C15.6881576,1.33372755 17.2544148,0.241195208 18.1561993,1.6662374 C18.1561993,1.6662374 18.9630591,0.763710669 20.0546929,0.953716304 C21.1463267,1.14372194 20.9090151,2.18875286 20.9090151,2.18875286 C20.9090151,2.18875286 21.7158748,1.33372755 22.712584,1.42873038 C23.7092932,1.5712346 24.0889919,2.18875289 23.9466049,2.66376693 C23.8042178,3.13878101 22.7600463,4.04130771 22.7600463,4.04130771 L14.216825,9.55147087 C14.216825,9.55147087 12.7929548,10.6915046 10.1350637,9.40896665 C7.42971031,8.12642868 6.10076476,7.27140336 6.10076476,7.27140336 C6.10076476,7.27140336 5.05659326,6.70138649 4.20227116,7.31890475 C3.25302435,7.93642304 2.82586329,8.3639357 2.82586326,8.3639357 L0.025585168,2.52126272 Z"
                          id="Shape"></path>
                </g>
                <path d="M12.3335129,8.768 L10.1528242,8.768 C10.5243397,10.1898971 11.1671114,10.9216 12.0798932,10.9601829 C13.2285624,10.9601829 13.9387168,9.97366857 14.2099729,7.99789714 L15.9851193,8.59026286 C15.4439488,11.4741029 14.159364,12.8759771 12.1307896,12.7968 C10.0679968,12.7968 8.80018571,11.4548114 8.3271648,8.76809143 L6.4,8.76809143 L6.75502927,7.10912 L8.17495463,7.10912 C8.14083195,6.87213714 8.12424986,6.65590857 8.12424986,6.45741714 C8.12424986,6.22052571 8.14083195,5.98354286 8.17495463,5.74646857 L6.4,5.74646857 L6.75502927,4.08795429 L8.37786958,4.08795429 C9.0193952,1.44228571 10.3050344,0.0796342857 12.232295,0 C14.0579544,0 15.2574243,1.24416 15.8329091,3.73257143 L14.0579544,4.44342857 C13.7537258,2.78454857 13.1108583,1.95510857 12.1308855,1.95510857 C11.2181037,1.99478857 10.5752362,2.70564571 10.2038165,4.08795429 L13.1957816,4.08795429 L12.8408482,5.74646857 L9.95000512,5.74646857 C9.91609926,5.98206853 9.89915799,6.21960775 9.89930034,6.45741714 C9.89930034,6.65590857 9.91578658,6.87213714 9.95000512,7.10912 L12.6884463,7.10912 L12.3335129,8.768 Z"
                      id="Shape"></path>
            </g>
        </g>
    </g>
</svg>