<?xml version="1.0" encoding="UTF-8"?>
<svg width="24px" height="23px" viewBox="0 0 24 23" version="1.1" xmlns="http://www.w3.org/2000/svg"
     xmlns:xlink="http://www.w3.org/1999/xlink">
    <!-- Generator: Sketch 45.1 (43504) - http://www.bohemiancoding.com/sketch -->
    <title>转发 copy</title>
    <desc>Created with Sketch.</desc>
    <defs></defs>
    <g id="Page-1" stroke="none" stroke-width="1" fill="none" fill-rule="evenodd">
        <g id="1version-copy-2" transform="translate(-5791.000000, -1721.000000)" fill-rule="nonzero">
            <g id="转发-copy" transform="translate(5791.000000, 1721.000000)">
                <path d="M14.6900895,21.5959589 L23.9177733,12.0611373 L14.6900895,2.52631579 L14.6900895,7.88964336 C9.3212577,7.88964336 2.52631579,10.4436037 2.52631579,22.7877925 C4.70740507,15.296161 14.0189587,16.0623819 14.6900895,16.0623819 L14.6900895,21.5959807 L14.6900895,21.5959589 Z"
                      id="Shape" fill-opacity="0.573652627" fill="white"></path>
                <path d="M12.0001481,8.83501751 L10.7370292,8.83501751 C10.3883894,8.83501751 10.1054698,9.08219348 10.1054698,9.38677469 L10.1054698,17.1114027 C10.1054698,17.4159563 10.3883894,17.6631599 10.7370292,17.6631599 L12.0001481,17.6631599 C12.3487879,17.6631599 12.6317075,17.4159563 12.6317075,17.1114027 L12.6317075,9.38677469 C12.6317075,9.08219348 12.3487879,8.83501751 12.0001481,8.83501751 L12.0001481,8.83501751 Z M6.94764504,11.3573478 L5.68452618,11.3573478 C5.33588639,11.3573478 5.05296675,11.5927561 5.05296675,11.8828138 L5.05296675,17.1376388 C5.05296675,17.427724 5.33588639,17.6631047 5.68452618,17.6631047 L6.94764504,17.6631047 C7.29628483,17.6631047 7.57920447,17.4276689 7.57920447,17.1376388 L7.57920447,11.8828138 C7.57920447,11.5927286 7.29625723,11.3573478 6.94764504,11.3573478 L6.94764504,11.3573478 Z M1.89514201,12.6184992 L0.632023154,12.6184992 C0.283410962,12.6184992 0.000463725808,12.8445099 0.000463725808,13.1229377 L0.000463725808,17.1586662 C0.000463725808,17.4371216 0.283410962,17.6631323 0.632023154,17.6631323 L1.89514201,17.6631323 C2.2437542,17.6631323 2.52670144,17.4371216 2.52670144,17.1586662 L2.52670144,13.1229377 C2.52670144,12.8444824 2.2437266,12.6184992 1.89514201,12.6184992 L1.89514201,12.6184992 Z M16.5927204,6.31268719 L17.0467443,6.31268719 C17.4138774,6.31268719 17.6842105,6.60045745 17.6842105,6.95544392 L17.6842105,17.0203756 C17.6842105,17.3825825 17.4014289,17.6631323 17.0526235,17.6631323 L15.7895046,17.6631323 C15.4509119,17.6631323 15.1579452,17.375362 15.1579452,17.0203756 L15.1579452,6.95544392 C15.1579452,6.59323701 15.443349,6.31268719 15.7954391,6.31268719 L16.5927204,6.31268719 L16.5927204,6.31268719 Z M16.5478397,2.12767199 L16.5478397,2.82408595 C16.5478397,3.13566712 16.8011976,3.38750055 17.1134029,3.38750055 C17.4255806,3.38750055 17.6789662,3.13566712 17.6789662,2.82408595 L17.6789662,0.403530724 C17.6789662,0.184382178 17.5008234,0.00687516195 17.2813882,0.00687516195 L14.8510947,0.00687516195 C14.5388895,0.00687516195 14.2855315,0.259314886 14.2855315,0.570317319 C14.2855315,0.88189849 14.5388895,1.13375948 14.8510947,1.13375948 L15.9200065,1.13375948 C12.1058082,5.33982969 6.64857829,8.03647019 0.549410621,8.19424502 C0.261522643,8.20157569 0.0177701268,8.41849197 0.00137458902,8.70529767 C-0.0173119078,9.04559523 0.242863748,9.33071984 0.574279947,9.32228681 C6.88214569,9.16051594 12.5418633,6.42110399 16.5478397,2.12767199 L16.5478397,2.12767199 Z"
                      id="Shape" fill="white"></path>
            </g>
        </g>
    </g>
</svg>