<?xml version="1.0" encoding="UTF-8"?>
<svg width="17px" height="30px" viewBox="0 0 17 30" version="1.1" xmlns="http://www.w3.org/2000/svg"
     xmlns:xlink="http://www.w3.org/1999/xlink">
    <!-- Generator: Sketch 43.2 (39069) - http://www.bohemiancoding.com/sketch -->
    <title>тид copy 6</title>
    <desc>Created with Sketch.</desc>
    <defs></defs>
    <g id="Page-1" stroke="none" stroke-width="1" fill="none" fill-rule="evenodd">
        <g id="z-copy" transform="translate(-1544.000000, -3361.000000)" fill-rule="nonzero" fill="#3F5B67">
            <g id="Group-11" transform="translate(160.000000, 2347.000000)">
                <g id="тид-copy-6"
                   transform="translate(1392.500000, 1029.000000) scale(-1, 1) translate(-1392.500000, -1029.000000) translate(1384.000000, 1014.000000)">
                    <path d="M16.9751581,27.9545192 C16.9751581,27.0170192 16.5485933,26.1786218 15.8789485,25.6253205 L5.26135346,14.9837179 L15.8174991,4.40375 C16.521897,3.85102564 16.9748064,2.99185897 16.9748064,2.02567308 C16.9748064,0.358525641 16.6269485,0.00721153846 14.9635631,0.00721153846 C14.1121918,0.00721153846 13.3431794,0.362467949 12.7951865,0.932435897 L0.744170515,13.006891 C0.295161634,13.5452564 0.0178721137,14.235 0.0178721137,14.9903846 C0.0178721137,15.8877885 0.408596803,16.6928205 1.02910124,17.24625 L12.7137869,28.9600641 C13.2655524,29.5816987 14.0688064,29.9738141 14.9642345,29.9738141 C16.6269805,29.9732692 16.9751581,29.6220513 16.9751581,27.9545192 Z"
                          id="Shape"></path>
                </g>
            </g>
        </g>
    </g>
</svg>