<?xml version="1.0" encoding="UTF-8"?>
<svg width="40px" height="36px" viewBox="0 0 40 36" version="1.1" xmlns="http://www.w3.org/2000/svg"
     xmlns:xlink="http://www.w3.org/1999/xlink">
    <!-- Generator: Sketch 43.2 (39069) - http://www.bohemiancoding.com/sketch -->
    <title>项目 copy</title>
    <desc>Created with Sketch.</desc>
    <defs></defs>
    <g id="Page-1" stroke="none" stroke-width="1" fill="none" fill-rule="evenodd">
        <g id="z-copy" transform="translate(-194.000000, -3097.000000)" fill-rule="nonzero" fill="#443434">
            <g id="Group-11" transform="translate(160.000000, 2347.000000)">
                <g id="项目-copy" transform="translate(34.000000, 750.000000)">
                    <path d="M32.5497924,16.1456015 L15.2757895,16.1456015 C14.7535389,16.1456015 14.3278762,16.5718599 14.3278762,17.0943158 C14.3278762,17.6155088 14.7535389,18.0383992 15.2757895,18.0383992 L32.549581,18.0383992 C33.0718316,18.0383992 33.4974943,17.6144563 33.4974943,17.0943158 C33.4987624,16.5718599 33.0718316,16.1456015 32.5497924,16.1456015 Z"
                          id="Shape"></path>
                    <path d="M32.5497924,24.0824272 L15.2757895,24.0824272 C14.7535389,24.0824272 14.3278762,24.5086856 14.3278762,25.0311415 C14.3278762,25.5523345 14.7535389,25.9752249 15.2757895,25.9752249 L32.549581,25.9752249 C33.0718316,25.9752249 33.4974943,25.551282 33.4974943,25.0311415 C33.4987624,24.5086856 33.0718316,24.0824272 32.5497924,24.0824272 Z"
                          id="Shape"></path>
                    <path d="M37.5347385,5.79478524 L25.1592388,5.79478524 L24.9381647,5.18328866 C23.4529948,1.08994529 20.6246836,0.122707156 18.5149688,0.03240353 L2.49597358,0.03240353 C1.14099649,0.03240353 0.0385849329,1.11773102 0.0385849329,2.4520776 L0.0385849329,32.7082127 C0.0385849329,34.0425593 1.14120784,35.1278868 2.49597358,35.1278868 L37.5360066,35.1278868 C38.8907723,35.1278868 39.9933953,34.0425593 39.9933953,32.7082127 L39.9933953,8.21445932 C39.9921271,6.88011273 38.8897156,5.79478524 37.5347385,5.79478524 Z M1.87185139,3.61065839 C1.87185139,1.7290171 2.55895645,1.99445503 5.41262993,1.99445503 L15.6167001,1.99445503 C19.9407488,1.99445503 21.0661977,2.92127756 21.8987129,4.3633991 L22.5190308,5.7994162 L1.87607843,5.7994162 L1.87185139,3.61065839 Z M37.9942175,30.3140089 C37.9942175,33.136576 36.9964252,33.1702557 34.6134324,33.1702557 L5.41284128,33.1702557 C2.49893251,33.1702557 2.03078803,32.9313405 2.03078803,29.8273376 L2.03078803,7.75704724 L35.2187443,7.75704724 C38.3104,7.75704724 37.9954857,8.96509505 37.9954857,11.0999654 L37.9954857,29.8273376 L37.9942175,30.3140089 Z"
                          id="Shape"></path>
                    <polygon id="Shape"
                             points="9.53991001 15.4627461 9.53991001 18.5450678 6.445084 18.5450678 6.445084 15.4627461"></polygon>
                    <polygon id="Shape"
                             points="6.445084 23.4768246 9.53991001 23.4768246 9.53991001 26.5591462 6.445084 26.5591462 6.445084 23.4768246"></polygon>
                </g>
            </g>
        </g>
    </g>
</svg>