<?xml version="1.0" encoding="UTF-8"?>
<svg width="15px" height="15px" viewBox="0 0 15 15" version="1.1" xmlns="http://www.w3.org/2000/svg"
     xmlns:xlink="http://www.w3.org/1999/xlink">
    <!-- Generator: Sketch 43.2 (39069) - http://www.bohemiancoding.com/sketch -->
    <title>facebook copy</title>
    <desc>Created with Sketch.</desc>
    <defs></defs>
    <g id="Page-1" stroke="none" stroke-width="1" fill="none" fill-rule="evenodd">
        <g id="z-copy" transform="translate(-484.000000, -2531.000000)" fill-rule="nonzero" fill="#8A8584">
            <g id="Group-11" transform="translate(160.000000, 2347.000000)">
                <g id="facebook-copy" transform="translate(324.000000, 184.000000)">
                    <path d="M14.1465,0.0111674846 C14.364,0.0111674846 14.5605,0.0919097998 14.736,0.254889658 C14.9115,0.416374289 15,0.606268252 15,0.821581093 L15,14.1126633 C15,14.3294714 14.9115,14.5178701 14.736,14.6793547 C14.559,14.8423346 14.3625,14.9230769 14.1465,14.9230769 L10.326,14.9230769 L10.326,9.16943935 L12.2775,9.16943935 L12.5625,6.89968316 L10.3275,6.89968316 L10.3275,5.41791215 C10.3275,4.67777426 10.707,4.3069577 11.466,4.3069577 L12.645,4.3069577 L12.645,2.35867554 C12.2385,2.27942845 11.6565,2.23905729 10.8975,2.23905729 C10.0305,2.23905729 9.333,2.50221743 8.8035,3.02853771 C8.2725,3.55635321 8.0085,4.29350065 8.0085,5.23848478 L8.0085,6.89968316 L6.057,6.89968316 L6.057,9.16943935 L8.0085,9.16943935 L8.0085,14.9230769 L0.813,14.9230769 C0.5955,14.9230769 0.4065,14.8423346 0.2445,14.6793547 C0.081,14.5178701 0,14.3294714 0,14.1126633 L0,0.821581093 C0,0.606268252 0.081,0.416374289 0.2445,0.254889658 C0.4065,0.0934050278 0.597,0.0111674846 0.813,0.0111674846 L14.1465,0.0111674846 Z"
                          id="Shape"></path>
                </g>
            </g>
        </g>
    </g>
</svg>