<?xml version="1.0" encoding="UTF-8"?>
<svg width="15px" height="15px" viewBox="0 0 15 15" version="1.1" xmlns="http://www.w3.org/2000/svg"
     xmlns:xlink="http://www.w3.org/1999/xlink">
    <!-- Generator: Sketch 43.2 (39069) - http://www.bohemiancoding.com/sketch -->
    <title>linkedin copy</title>
    <desc>Created with Sketch.</desc>
    <defs></defs>
    <g id="Page-1" stroke="none" stroke-width="1" fill="none" fill-rule="evenodd">
        <g id="z-copy" transform="translate(-464.000000, -2531.000000)" fill-rule="nonzero" fill="#8A8584">
            <g id="Group-11" transform="translate(160.000000, 2347.000000)">
                <g id="linkedin-copy" transform="translate(304.000000, 184.000000)">
                    <path d="M13.6431283,0 L1.35687173,0 C0.6075,0 0,0.6075 0,1.35687173 L0,13.643089 C0,14.3925 0.6075,15 1.35687173,15 L13.643089,15 C14.3925,15 15,14.3925 15,13.643089 L15,1.35687173 C15,0.6075 14.3925,0 13.6431283,0 Z M4.9786793,12.1612592 C4.9786793,12.3502986 4.82544645,12.5035315 4.63640708,12.5035315 L3.17943568,12.5035315 C2.99039631,12.5035315 2.83716346,12.3502986 2.83716346,12.1612592 L2.83716346,6.05369475 C2.83716346,5.86465538 2.99039631,5.71142253 3.17943568,5.71142253 L4.63640708,5.71142253 C4.82544645,5.71142253 4.9786793,5.86465538 4.9786793,6.05369475 L4.9786793,12.1612592 Z M3.90792138,5.13569317 C3.14349301,5.13569317 2.52378833,4.51598849 2.52378833,3.75156012 C2.52378833,2.98713175 3.14349301,2.36742708 3.90792138,2.36742708 C4.67234975,2.36742708 5.29205442,2.98713175 5.29205442,3.75156012 C5.29205442,4.51598849 4.67238378,5.13569317 3.90792138,5.13569317 Z M12.5927725,12.1888289 C12.5927725,12.3626199 12.4518609,12.5035315 12.27807,12.5035315 L10.714632,12.5035315 C10.5408411,12.5035315 10.3999295,12.3626199 10.3999295,12.1888289 L10.3999295,9.32403497 C10.3999295,8.89667121 10.5252863,7.4513063 9.28308596,7.4513063 C8.31954339,7.4513063 8.12410513,8.44061459 8.08486092,8.88458822 L8.08486092,12.1888289 C8.08486092,12.3626199 7.94398336,12.5035315 7.77015836,12.5035315 L6.25804764,12.5035315 C6.08425667,12.5035315 5.94334508,12.3626199 5.94334508,12.1888289 L5.94334508,6.02612509 C5.94334508,5.85233413 6.08425667,5.71142253 6.25804764,5.71142253 L7.77015836,5.71142253 C7.94394932,5.71142253 8.08486092,5.85233413 8.08486092,6.02612509 L8.08486092,6.55896832 C8.44214328,6.0227895 8.9731145,5.60893828 10.1036407,5.60893828 C12.6071019,5.60893828 12.5927725,7.94779842 12.5927725,9.23288491 L12.5927725,12.1888289 L12.5927725,12.1888289 Z"
                          id="Shape"></path>
                </g>
            </g>
        </g>
    </g>
</svg>