<?xml version="1.0" encoding="UTF-8"?>
<svg width="14px" height="20px" viewBox="0 0 14 20" version="1.1" xmlns="http://www.w3.org/2000/svg"
     xmlns:xlink="http://www.w3.org/1999/xlink">
    <!-- Generator: Sketch 43.2 (39069) - http://www.bohemiancoding.com/sketch -->
    <title>icon copy</title>
    <desc>Created with Sketch.</desc>
    <defs></defs>
    <g id="Page-1" stroke="none" stroke-width="1" fill="none" fill-rule="evenodd" opacity="0.649999976">
        <g id="z-copy" transform="translate(-372.000000, -2616.000000)" fill-rule="nonzero" fill="#281E1D">
            <g id="Group-11" transform="translate(160.000000, 2347.000000)">
                <g id="icon-copy" transform="translate(212.000000, 269.000000)">
                    <path d="M7.11783333,0 C3.35358333,0 0.300416667,3.03158333 0.300416667,6.77075 C0.300416667,8.68466667 2.17758333,12.11175 2.17758333,12.11175 L6.867,20.0655 L11.7588333,12.2039167 C11.7588333,12.2039167 13.9323333,8.93433333 13.9323333,6.77075 C13.93175,3.03158333 10.8809167,0 7.11783333,0 Z M7.08575,10.5011667 C4.93033333,10.5011667 3.18441667,8.75466667 3.18441667,6.59691667 C3.18441667,4.44266667 4.93033333,2.69675 7.08575,2.69675 C9.24,2.69675 10.98825,4.44208333 10.98825,6.59691667 C10.98825,8.75466667 9.24,10.5011667 7.08575,10.5011667 Z"
                          id="Shape"></path>
                </g>
            </g>
        </g>
    </g>
</svg>