<?xml version="1.0" encoding="UTF-8"?>
<svg width="16px" height="12px" viewBox="0 0 16 12" version="1.1" xmlns="http://www.w3.org/2000/svg"
     xmlns:xlink="http://www.w3.org/1999/xlink">
    <!-- Generator: Sketch 43.2 (39069) - http://www.bohemiancoding.com/sketch -->
    <title>邮件 (1) copy</title>
    <desc>Created with Sketch.</desc>
    <defs></defs>
    <g id="Page-1" stroke="none" stroke-width="1" fill="none" fill-rule="evenodd">
        <g id="z-copy" transform="translate(-372.000000, -2646.000000)" fill-rule="nonzero" fill="#281E1D">
            <g id="Group-11" transform="translate(160.000000, 2347.000000)">
                <g id="邮件-(1)-copy" transform="translate(212.000000, 299.000000)">
                    <path d="M14.0254966,1.80812142 C14.0254966,1.1539534 13.290639,0.621769174 12.3880957,0.621769174 L3.18840127,0.621769174 C2.28585799,0.621769174 1.65498187,0.94583198 1.65498187,1.6 L1.55100034,3.87855722 C0.688323486,3.91413583 0.00278514168,4.38652407 0.00278514168,4.96385426 L0.00278514168,10.8956155 C0.00278514168,11.4959671 0.744218699,11.9847992 1.65498187,11.9847992 L13.9687794,11.9847992 C14.8795426,11.9847992 15.6209762,11.4959671 15.6209762,10.8956155 L15.6209762,4.96385426 C15.6205652,4.37605977 14.9099562,3.89709397 14.0254966,3.87706232 L14.0254966,1.80812142 Z M14.0254966,1.49201464 C14.2729152,1.50757633 14.4858102,1.62113461 14.6082864,1.78726616 C14.5079449,1.79578794 14.4134996,1.83928765 14.3407292,1.91049791 L14.0254966,2.22888167 L14.0254966,1.49201464 L14.0254966,1.49201464 Z M13.1245973,3.13145966 L8.1988317,8.11666793 C7.99210161,8.32569927 7.63207069,8.32611986 7.42451861,8.11666793 L2.45148865,3.09150397 L13.1245973,3.13145966 Z M1.55100034,1.49579992 L1.55100034,2.18135543 L1.2834431,1.91049791 C1.2104156,1.83942854 1.11589369,1.79596032 1.01547488,1.78726616 C1.12973127,1.63164926 1.32330954,1.52229685 1.55100034,1.49579992 L1.55100034,1.49579992 Z M14.7443255,10.4845683 C14.7443255,11.0191333 13.9704234,11.0607714 13.9704234,11.0607714 C13.9704234,11.0607714 1.99816204,11.039742 1.55017835,11.0813801 C1.10178366,11.1225975 0.776276247,10.4433508 0.776276247,10.4433508 L0.776276247,2.74872622 L7.86181645,9.74433653 L14.7624093,2.93168121 C14.7624093,2.93168121 14.7443255,9.9495826 14.7443255,10.4845683 Z"
                          id="Shape"></path>
                </g>
            </g>
        </g>
    </g>
</svg>