<?xml version="1.0" encoding="UTF-8"?>
<svg width="40px" height="30px" viewBox="0 0 40 30" version="1.1" xmlns="http://www.w3.org/2000/svg"
     xmlns:xlink="http://www.w3.org/1999/xlink">
    <!-- Generator: Sketch 43.2 (39069) - http://www.bohemiancoding.com/sketch -->
    <title>Shape</title>
    <desc>Created with Sketch.</desc>
    <defs></defs>
    <g id="Page-1" stroke="none" stroke-width="1" fill="none" fill-rule="evenodd">
        <g id="z-copy" transform="translate(-195.000000, -3000.000000)" fill-rule="nonzero" fill="#443434">
            <g id="Group-11" transform="translate(160.000000, 2347.000000)">
                <g id="欧元-copy" transform="translate(35.000000, 653.000000)">
                    <path d="M4.56737587,5.54427005 L35.4326241,5.54427005 C35.9773049,5.54427005 36.3404255,5.17656718 36.3404255,4.62501285 C36.3404255,4.07345853 35.9773049,3.70575566 35.4326241,3.70575566 L4.56737587,3.70575562 C4.02269502,3.70575562 3.65957447,4.07345849 3.65957447,4.62501281 C3.65957447,5.17656713 4.02269502,5.54427005 4.56737587,5.54427005 Z M8.19858157,1.86724119 L31.8014185,1.86724119 C32.3460993,1.86724119 32.7092199,1.49953832 32.7092199,0.947983995 C32.7092199,0.396429671 32.3460993,0.0287268021 31.8014185,0.0287268021 L8.19858157,0.0287268021 C7.65390072,0.0287268021 7.29078017,0.396429671 7.29078017,0.947983995 C7.29078017,1.49953832 7.65390072,1.86724119 8.19858157,1.86724119 Z M31.8014184,23.9294142 L29.9858156,23.9294142 C29.4411347,23.9294142 29.0780142,24.297117 29.0780142,24.8486714 C29.0780142,25.4002257 29.4411347,25.7679286 29.9858156,25.7679286 L31.8014184,25.7679286 C32.3460993,25.7679286 32.7092198,25.4002257 32.7092198,24.8486714 C32.7092198,24.297117 32.3460993,23.9294142 31.8014184,23.9294142 Z M10.0141844,11.0598133 L8.19858153,11.0598133 C7.65390068,11.0598133 7.29078013,11.4275162 7.29078013,11.9790705 C7.29078013,12.5306248 7.65390068,12.8983277 8.19858153,12.8983277 L10.0141844,12.8983277 C10.5588652,12.8983277 10.9219858,12.5306248 10.9219858,11.9790705 C10.9219858,11.4275162 10.5588652,11.0598133 10.0141844,11.0598133 Z M38.1560284,7.38278443 L1.84397162,7.38278443 C0.845390043,7.38278443 0.028368766,8.21011592 0.028368766,9.22129886 L0.028368766,27.606443 C0.028368766,28.617626 0.845390043,29.4449575 1.84397162,29.4449575 L38.1560283,29.4449575 C39.1546099,29.4449575 39.9716312,28.617626 39.9716312,27.606443 L39.9716312,9.22129886 C39.9716312,8.21011592 39.1546099,7.38278443 38.1560284,7.38278443 Z M2.75177306,9.22129886 C3.29645391,9.22129886 3.65957447,9.58900173 3.65957447,10.1405561 C3.65957447,10.6921104 3.29645391,11.0598132 2.75177306,11.0598132 C2.20709221,11.0598132 1.84397166,10.6921104 1.84397166,10.1405561 C1.84397166,9.58900173 2.20709221,9.22129886 2.75177306,9.22129886 Z M2.75177306,27.606443 C2.20709221,27.606443 1.84397166,27.2387402 1.84397166,26.6871858 C1.84397166,26.1356315 2.20709221,25.7679286 2.75177306,25.7679286 C3.29645391,25.7679286 3.65957447,26.1356315 3.65957447,26.6871858 C3.65957447,27.2387401 3.29645391,27.606443 2.75177306,27.606443 Z M37.2482269,27.606443 C36.7035461,27.606443 36.3404255,27.2387402 36.3404255,26.6871858 C36.3404255,26.1356315 36.7035461,25.7679286 37.2482269,25.7679286 C37.7929078,25.7679286 38.1560283,26.1356315 38.1560283,26.6871858 C38.1560284,27.2387401 37.7929078,27.606443 37.2482269,27.606443 Z M38.1560284,24.1132656 C37.883688,24.0213399 37.6113475,23.9294142 37.248227,23.9294142 C35.7049646,23.9294142 34.5248227,25.1244485 34.5248227,26.6871858 C34.5248227,27.0548887 34.6156029,27.3306658 34.706383,27.606443 L5.29361702,27.606443 C5.38439715,27.3306659 5.47517732,27.0548887 5.47517732,26.6871858 C5.47517732,25.1244485 4.29503549,23.9294142 2.75177306,23.9294142 C2.38865251,23.9294142 2.11631209,24.0213399 1.84397166,24.1132656 L1.84397162,12.7144763 C2.11631204,12.806402 2.38865247,12.8983277 2.75177306,12.8983277 C4.29503549,12.8983277 5.47517732,11.7032933 5.47517732,10.1405561 C5.47517732,9.77285319 5.38439719,9.49707602 5.29361702,9.22129886 L34.706383,9.22129886 C34.6156029,9.49707602 34.5248227,9.77285319 34.5248227,10.1405561 C34.5248227,11.7032933 35.7049645,12.8983277 37.2482269,12.8983277 C37.6113475,12.8983277 37.8836879,12.806402 38.1560283,12.7144762 L38.1560284,24.1132656 Z M37.2482269,11.0598133 C36.7035461,11.0598133 36.3404255,10.6921104 36.3404255,10.1405561 C36.3404255,9.58900177 36.7035461,9.2212989 37.2482269,9.2212989 C37.7929078,9.2212989 38.1560283,9.58900177 38.1560283,10.1405561 C38.1560283,10.6921104 37.7929078,11.0598133 37.2482269,11.0598133 Z M20,11.0598133 C16.0056737,11.0598133 12.7375886,14.3691392 12.7375886,18.413871 C12.7375886,22.4586027 16.0056737,25.7679286 20,25.7679286 C23.9943263,25.7679286 27.2624114,22.4586027 27.2624114,18.413871 C27.2624114,14.3691392 23.9943263,11.0598133 20,11.0598133 Z M21.9971631,17.1269109 L21.6340426,17.9542423 L18.3659574,17.9542423 L18.3659574,18.1380938 L18.3659574,18.413871 L18.3659574,18.7815738 L21.4524823,18.7815738 L21.0893617,19.6089053 L18.4567376,19.6089053 C18.5475177,20.2523853 18.8198581,20.8039397 19.0921986,21.1716426 C19.4553191,21.6312712 20,21.9070484 20.7262411,21.9070484 C21.1801418,21.9070484 21.5432624,21.8151227 21.8156028,21.7231969 C22.0879432,21.6312712 22.3602837,21.355494 22.7234042,21.0797169 L22.7234042,22.4586027 C22.0879432,22.8263056 21.4524822,23.010157 20.7262411,23.010157 C19.5460993,23.010157 18.6382978,22.6424541 17.9120567,21.9989741 C17.3673759,21.355494 17.0042553,20.6200883 16.822695,19.6089053 L15.8241134,19.6089053 L16.187234,18.7815738 L16.822695,18.7815738 L16.822695,18.5977224 L16.822695,18.4138709 L16.822695,18.2300195 L16.822695,17.9542423 L15.8241134,17.9542423 L16.187234,17.1269108 L16.9134751,17.1269108 C17.0950354,16.1157279 17.5489361,15.3803221 18.0936169,14.8287678 C18.8198581,14.1852878 19.6368794,13.8175849 20.7262411,13.8175849 C21.5432623,13.8175849 22.2695035,14.093362 23.0865248,14.6449164 L22.4510638,15.8399507 C21.9063829,15.2883964 21.270922,15.0126192 20.5446808,15.0126192 C19.9092198,15.0126192 19.4553191,15.1964707 19.0921986,15.6560993 C18.729078,16.0238021 18.5475177,16.5753564 18.4567376,17.1269108 L21.9971631,17.1269109 Z"
                          id="Shape"></path>
                </g>
            </g>
        </g>
    </g>
</svg>