<?xml version="1.0" encoding="UTF-8"?>
<svg width="40px" height="33px" viewBox="0 0 40 33" version="1.1" xmlns="http://www.w3.org/2000/svg"
     xmlns:xlink="http://www.w3.org/1999/xlink">
    <!-- Generator: Sketch 43.2 (39069) - http://www.bohemiancoding.com/sketch -->
    <title>graph-analysis</title>
    <desc>Created with Sketch.</desc>
    <defs></defs>
    <g id="Page-1" stroke="none" stroke-width="1" fill="none" fill-rule="evenodd">
        <g id="z-copy" transform="translate(-194.000000, -2891.000000)" fill-rule="nonzero" fill="#443434">
            <g id="graph-analysis" transform="translate(194.000000, 2891.000000)">
                <path d="M31.3651064,28.7015385 L8.63574468,28.7015385 C7.63148936,28.7015385 6.81787234,29.5104615 6.81787234,30.5089231 C6.81787234,31.5073846 7.63148936,32.3171538 8.63574468,32.3171538 L31.3634043,32.3171538 C32.3685106,32.3171538 33.1821277,31.5073846 33.1821277,30.5089231 C33.1821277,29.5104615 32.3676596,28.7015385 31.3651064,28.7015385 Z"
                      id="Shape"></path>
                <path d="M6.36425532,15.1427692 L6.36425532,19.6620769 C6.36425532,20.4109231 6.97531915,21.0184615 7.72765957,21.0184615 C8.48085106,21.0184615 9.09191489,20.4109231 9.09191489,19.6620769 L9.09191489,15.1427692 C9.09191489,14.3939231 8.48085106,13.7872308 7.72765957,13.7872308 C6.97446809,13.7880769 6.36425532,14.3947692 6.36425532,15.1427692 Z"
                      id="Shape"></path>
                <path d="M10.9089362,13.3362308 L10.9089362,19.6629231 C10.9089362,20.4117692 11.52,21.0193077 12.2731915,21.0193077 C13.0255319,21.0193077 13.6365957,20.4117692 13.6365957,19.6629231 L13.6365957,13.3362308 C13.6365957,12.5873846 13.0255319,11.9798462 12.2731915,11.9798462 C11.52,11.9798462 10.9089362,12.5873846 10.9089362,13.3362308 Z"
                      id="Shape"></path>
                <path d="M15.4544681,11.528 L15.4544681,19.6620769 C15.4544681,20.4109231 16.0655319,21.0184615 16.8187234,21.0184615 C17.5710638,21.0184615 18.1821277,20.4109231 18.1821277,19.6620769 L18.1821277,11.528 C18.1821277,10.7791538 17.5710638,10.1716154 16.8187234,10.1716154 C16.0655319,10.1716154 15.4544681,10.7791538 15.4544681,11.528 Z"
                      id="Shape"></path>
                <path d="M38.1812766,0.682 L1.8187234,0.682 C0.814468085,0.682 0,1.49176923 0,2.49023077 L0,25.0867692 C0,26.0852308 0.814468085,26.895 1.8187234,26.895 L36.5191489,26.895 C36.466383,26.8484615 36.4059574,26.8103846 36.3565957,26.7621538 L33.84,24.2583846 C32.3889362,25.0732308 30.7455319,25.509 29.0612766,25.509 C26.7651064,25.509 24.5914894,24.7220769 22.8434043,23.2810769 L3.63574468,23.2810769 L3.63574468,4.29676923 L36.3634043,4.29676923 L36.3634043,9.39230769 C37.9429787,11.165 38.8170213,13.4157692 38.8170213,15.807 C38.8170213,17.4815385 38.3795745,19.1146154 37.5608511,20.5556154 L39.9991489,22.9815385 L39.9991489,2.48938462 C40,1.49176923 39.1855319,0.682 38.1812766,0.682 Z"
                      id="Shape"></path>
                <path d="M36.0604255,21.6226154 C35.8791489,21.4415385 35.6357447,21.3679231 35.3991489,21.3933077 L35.0170213,21.0133846 C36.293617,19.5715385 36.9982979,17.7463846 36.9982979,15.8086923 C36.9982979,13.7017692 36.173617,11.7200769 34.6757447,10.23 C33.1753191,8.73653846 31.1829787,7.91746154 29.0612766,7.91746154 C26.9429787,7.91746154 24.9506383,8.73738462 23.4510638,10.23 C21.9497872,11.7200769 21.1242553,13.7017692 21.1242553,15.8086923 C21.1242553,17.9156154 21.9514894,19.8981538 23.4510638,21.3882308 C24.9506383,22.88 26.9429787,23.6990769 29.0612766,23.6990769 C31.012766,23.6990769 32.8476596,22.9993077 34.2961702,21.7283846 L34.68,22.1074615 C34.6544681,22.3443846 34.7276596,22.5838462 34.9106383,22.7666154 L37.6451064,25.4853077 C37.8042553,25.6435385 38.0119149,25.7205385 38.2212766,25.7205385 C38.4280851,25.7205385 38.6374468,25.6426923 38.7974468,25.4853077 C39.1140426,25.1688462 39.1140426,24.6569231 38.7974468,24.3421538 L36.0604255,21.6226154 Z M33.5242553,20.2416923 C32.332766,21.4271538 30.747234,22.0820769 29.0612766,22.0820769 C27.3778723,22.0820769 25.7931915,21.4288462 24.6017021,20.2433846 C23.4110638,19.0596154 22.7531915,17.4832308 22.7531915,15.8078462 C22.7531915,14.1333077 23.4093617,12.5577692 24.6017021,11.3731538 C25.7931915,10.1876923 27.3795745,9.53446154 29.0612766,9.53446154 C30.747234,9.53446154 32.332766,10.1868462 33.5242553,11.3731538 C34.7140426,12.5577692 35.3710638,14.1333077 35.3710638,15.8078462 C35.3710638,17.4832308 34.7140426,19.0570769 33.5242553,20.2416923 Z"
                      id="Shape"></path>
            </g>
        </g>
    </g>
</svg>