<?xml version="1.0" encoding="UTF-8"?>
<svg width="16px" height="20px" viewBox="0 0 16 20" version="1.1" xmlns="http://www.w3.org/2000/svg"
     xmlns:xlink="http://www.w3.org/1999/xlink">
    <!-- Generator: Sketch 43.2 (39069) - http://www.bohemiancoding.com/sketch -->
    <title>电话 copy</title>
    <desc>Created with Sketch.</desc>
    <defs></defs>
    <g id="Page-1" stroke="none" stroke-width="1" fill="none" fill-rule="evenodd">
        <g id="z-copy" transform="translate(-372.000000, -2588.000000)" fill-rule="nonzero" fill="#281E1D">
            <g id="Group-11" transform="translate(160.000000, 2347.000000)">
                <g id="电话-copy" transform="translate(212.000000, 241.000000)">
                    <path d="M12.2150256,19.4891926 C10.9088729,19.4891926 9.13802159,19.1977291 7.13504503,18.0863063 C4.88621959,16.8385459 3.16872236,14.5366807 2.52710104,13.5924466 C1.8895408,12.6524329 0.374817079,10.1948972 0.0798712459,7.68401905 C-0.385919671,3.71854594 1.31477312,1.43372634 1.8471096,0.827899243 C2.14409997,0.489900604 2.57832656,0.086932599 2.99832539,0.0300775956 C3.61356375,-0.0986902737 4.25171215,0.186401626 4.89591015,0.877647371 C5.35189848,1.36695983 5.71941146,1.9544343 5.93901741,2.3054486 C5.96834115,2.35236487 5.99472411,2.39451599 6.01788622,2.43086725 C6.36282525,2.97090809 7.35574327,4.52529883 6.65597861,5.80129611 C6.48745814,6.06523076 6.31619294,6.28766779 6.15055723,6.50275288 C5.68406613,7.10857998 5.24345386,7.68080598 5.30834698,8.40039754 C5.38407897,9.24028862 6.13198833,10.5460476 6.48146456,11.0861157 C6.84110746,11.591548 7.75330818,12.7334404 8.51743382,13.1319156 C9.1721626,13.4733451 9.88668716,13.3050402 10.6431668,13.1268509 C10.9118137,13.063597 11.189591,12.9981375 11.4666121,12.9560953 C12.9487352,12.832147 13.9470866,14.2439918 14.3228338,14.7755099 C14.3422149,14.8029299 14.3596355,14.8275725 14.3750396,14.8489476 C15.6278662,16.5898598 16.0050977,17.7794037 15.5270396,18.4831749 C15.3123069,18.8419224 14.7537835,19.0743526 14.3130312,19.2078856 C13.9701087,19.311793 13.2339625,19.4891926 12.2150256,19.4891926 Z M7.69034757,17.1403567 C9.6522933,18.2289612 11.34506,18.4254214 12.4197876,18.3986821 C13.6484438,18.3680218 14.4097687,18.0393628 14.5722676,17.9103227 C14.5931331,17.8815956 14.7121645,17.6470415 14.2968429,16.819676 C13.9990964,16.226565 13.5911407,15.6596487 13.4570973,15.4733996 C13.4401529,15.4498461 13.4209398,15.4226984 13.3995702,15.3924738 C13.1267782,15.0066058 12.4057279,13.9864561 11.6182441,14.0355235 C11.3933728,14.07084 11.1568503,14.1265514 10.9069124,14.1854214 C10.022355,14.3937808 9.01980239,14.629887 7.98781406,14.0917794 C6.96565633,13.5587365 5.94509501,12.2351967 5.60595352,11.7688387 C5.59659905,11.7626576 5.57699388,11.7333315 5.5464098,11.6860885 C5.51484548,11.6417046 5.49552038,11.6136038 5.4899469,11.6054622 C5.17853273,11.1063472 4.2939753,9.62321578 4.19228046,8.49550986 C4.09002548,7.36132334 4.70823262,6.55840979 5.25367656,5.85003675 C5.40777322,5.64987337 5.5536077,5.46049284 5.6756079,5.27348127 C5.92596597,4.79353573 5.72728153,4.04047923 5.08482,3.03473382 C5.0408764,2.96581619 5.01292502,2.92115996 4.98183682,2.8714663 C4.78295634,2.55356296 4.4500885,2.02150033 4.06565905,1.60894758 C3.72539726,1.24380122 3.41135039,1.05243294 3.2253533,1.09681687 L3.17141107,1.10972361 C2.9801766,1.21066303 2.37521696,1.7613778 1.86635068,2.83849148 C1.41764427,3.78825323 0.936617332,5.37842341 1.19291297,7.56042477 C1.45931927,9.82828045 2.85728017,12.0990225 3.45481786,12.9817999 C4.04823845,13.8564629 5.64398755,16.0049176 7.69034757,17.1403567 Z"
                          id="Shape"></path>
                </g>
            </g>
        </g>
    </g>
</svg>