<?xml version="1.0" encoding="UTF-8"?>
<svg width="15px" height="15px" viewBox="0 0 15 15" version="1.1" xmlns="http://www.w3.org/2000/svg"
     xmlns:xlink="http://www.w3.org/1999/xlink">
    <!-- Generator: Sketch 43.2 (39069) - http://www.bohemiancoding.com/sketch -->
    <title>twitter-logo copy 3</title>
    <desc>Created with Sketch.</desc>
    <defs></defs>
    <g id="Page-1" stroke="none" stroke-width="1" fill="none" fill-rule="evenodd">
        <g id="z-copy" transform="translate(-504.000000, -2531.000000)">
            <g id="Group-11" transform="translate(160.000000, 2347.000000)">
                <g id="twitter-logo-copy-3" transform="translate(344.000000, 184.000000)">
                    <rect id="Rectangle-7" fill="#FFFFFF" x="0" y="0" width="15" height="15" rx="5"></rect>
                    <path d="M12.772269,0 L2.20897331,0 C0.657474333,0 0,0.657474333 0,2.20897331 L0,12.772269 C0,14.323768 0.657474333,14.9812423 2.20897331,14.9812423 L12.772269,14.9812423 C14.323768,14.9812423 14.9812423,14.3237372 14.9812423,12.772269 L14.9812423,2.20897331 C14.9812731,0.657474333 14.323768,0 12.772269,0 Z M11.2172279,5.80897331 L11.2228337,6.04774127 C11.2228337,8.48593429 9.36797741,11.2949384 5.97563655,11.2949384 C4.93444559,11.2949384 3.96532854,10.9897023 3.14886037,10.4662731 C3.29306982,10.4831211 3.44005133,10.4924846 3.58894251,10.4924846 C4.45318275,10.4924846 5.24812115,10.1975359 5.87919918,9.70315195 C5.07209446,9.68818275 4.3913655,9.15446612 4.15635524,8.42226899 C4.26964066,8.44287474 4.3838809,8.45411704 4.5037269,8.45411704 C4.67226899,8.45411704 4.83517454,8.43258727 4.98967146,8.39045175 C4.14603696,8.2200308 3.51027721,7.47566735 3.51027721,6.58241273 L3.51027721,6.55900411 C3.75933265,6.697577 4.04303901,6.7799692 4.34547228,6.79028747 C3.8510883,6.45976386 3.52524641,5.895154 3.52524641,5.25563655 C3.52524641,4.91762834 3.61607803,4.6011499 3.77430185,4.32868583 C4.68348049,5.44478439 6.04302875,6.17886037 7.57580082,6.25564682 C7.54395277,6.12080082 7.52805955,5.97942505 7.52805955,5.83524641 C7.52805955,4.81746407 8.35389117,3.99160164 9.37262834,3.99160164 C9.90258727,3.99160164 10.3820021,4.21536961 10.7190554,4.57398357 C11.1385318,4.49063655 11.5336756,4.33709446 11.8904107,4.12641684 C11.7527618,4.55713552 11.4606468,4.91855236 11.0795483,5.14700205 C11.4512834,5.10298768 11.8080185,5.00279261 12.1385421,4.85673511 C11.8913655,5.22563655 11.5776899,5.55055441 11.2172279,5.80897331 Z"
                          id="Shape" fill="#8A8584" fill-rule="nonzero"></path>
                </g>
            </g>
        </g>
    </g>
</svg>