<?xml version="1.0" encoding="UTF-8"?>
<svg width="24px" height="24px" viewBox="0 0 24 24" version="1.1" xmlns="http://www.w3.org/2000/svg"
     xmlns:xlink="http://www.w3.org/1999/xlink">
    <!-- Generator: Sketch 45.1 (43504) - http://www.bohemiancoding.com/sketch -->
    <title>其他 copy 4</title>
    <desc>Created with Sketch.</desc>
    <defs></defs>
    <g id="Page-1" stroke="none" stroke-width="1" fill="none" fill-rule="evenodd">
        <g id="1version-copy-2" transform="translate(-4744.000000, -1138.000000)" fill-rule="nonzero" fill="#317BBA">
            <g id="其他-copy-4" transform="translate(4744.000000, 1138.000000)">
                <path d="M11.9916377,0 C5.36882746,0 0,5.36885495 0,11.9916377 C0,18.6144205 5.36885495,23.9832754 11.9916377,23.9832754 C18.6144205,23.9832754 23.9832754,18.614448 23.9832754,11.9916377 C23.9832754,5.36882746 18.6144205,0 11.9916377,0 Z M6.56756545,13.4750059 C5.74831613,13.4750059 5.08419726,12.8108871 5.08419726,11.9916377 C5.08419726,11.1723884 5.74831611,10.5082695 6.56756545,10.5082695 C7.38681479,10.5082695 8.05093364,11.1723884 8.05093364,11.9916377 C8.05093364,12.8108871 7.38681477,13.4750059 6.56756545,13.4750059 Z M11.9916377,13.4750059 C11.1723884,13.4750059 10.5082695,12.8108871 10.5082695,11.9916377 C10.5082695,11.1723884 11.1723884,10.5082695 11.9916377,10.5082695 C12.810887,10.5082695 13.4750059,11.1723884 13.4750059,11.9916377 C13.4750059,12.8108871 12.810887,13.4750059 11.9916377,13.4750059 Z M17.41571,13.4750059 C16.5964607,13.4750059 15.9323418,12.8108871 15.9323418,11.9916377 C15.9323418,11.1723884 16.5964606,10.5082695 17.41571,10.5082695 C18.2349593,10.5082695 18.8990782,11.1723884 18.8990782,11.9916377 C18.8990782,12.8108871 18.2349593,13.4750059 17.41571,13.4750059 Z"
                      id="Shape"></path>
            </g>
        </g>
    </g>
</svg>