<?xml version="1.0" encoding="UTF-8"?>
<svg width="24px" height="28px" viewBox="0 0 24 28" version="1.1" xmlns="http://www.w3.org/2000/svg"
     xmlns:xlink="http://www.w3.org/1999/xlink">
    <!-- Generator: Sketch 45.1 (43504) - http://www.bohemiancoding.com/sketch -->
    <title>利润表</title>
    <desc>Created with Sketch.</desc>
    <defs></defs>
    <g id="Page-1" stroke="none" stroke-width="1" fill="none" fill-rule="evenodd">
        <g id="1version-copy-2" transform="translate(-4744.000000, -1417.000000)" fill-rule="nonzero" fill="white">
            <g id="利润表" transform="translate(4744.000000, 1417.000000)">
                <path d="M10.3825477,27.0227822 C5.41679354,27.0227822 0.625077099,25.9993299 0.0772923437,24.0379094 L0.025638029,24.0316991 L0.025638029,23.6977329 C0.0247667383,23.6845815 0.0247667383,23.6714632 0.0247667383,23.6582786 L0.025638029,23.6568506 L0.025638029,16.8976217 C0.0247667383,16.8838393 0.0247667383,16.8706879 0.0247667383,16.8561084 L0.025638029,16.8561084 L0.025638029,3.70004517 L0.042285663,3.69911525 C0.0308657125,3.62578616 0.0247667687,3.55102902 0.0247667687,3.47567407 C0.0247667687,1.26723286 5.1044716,0.112664936 10.3825477,0.112664936 C15.659597,0.112664936 21.2632198,1.26723286 21.2632198,3.47567407 C21.2632198,3.55102902 21.2567163,3.62578616 21.2432115,3.7002112 L21.2547871,3.7002112 L21.2547871,15.5116752 C20.8310349,15.3354595 20.3870878,15.2011557 19.9296359,15.1113541 L19.9296359,11.818187 C18.1782431,12.9672419 14.5334705,13.5567973 10.6740835,13.5567973 C6.59379643,13.5567973 2.89783623,13.0251613 1.35072701,11.7402748 L1.35072701,17.3305888 C2.7818007,18.322325 6.05920528,19.402501 10.5908453,19.402501 C11.0929502,19.402501 11.5763227,19.3893496 12.0413361,19.3638771 C11.8576521,19.7670542 11.7046806,20.190191 11.5876182,20.6280069 C11.2695084,20.6377044 10.9491583,20.6432174 10.6267544,20.6432174 C6.88343404,20.6432174 3.236421,19.9557903 1.35072701,18.7504101 L1.35072701,24.0014774 C2.75628471,24.8762456 5.94229849,25.7386596 10.3477899,25.7386596 C10.861906,25.7386596 11.3608993,25.7275672 11.8420624,25.7047847 C12.0095655,26.1461209 12.2149381,26.5671654 12.451739,26.9635677 C11.7652655,27.0027894 11.0713239,27.0227822 10.3825477,27.0227822 L10.3825477,27.0227822 L10.3825477,27.0227822 L10.3825477,27.0227822 Z M1.35078925,5.30833686 L1.35078925,10.1168059 C2.23274016,11.0829367 5.49561308,12.1510573 10.6711585,12.1510573 C15.6854552,12.1510573 18.9234034,11.1486605 19.929667,10.2074046 L19.929667,5.24055394 C17.9560051,6.44865743 14.0882164,7.19390421 10.3825477,7.19390421 C6.74474529,7.19387097 3.20175659,6.47638829 1.35078925,5.30833686 L1.35078925,5.30833686 L1.35078925,5.30833686 L1.35078925,5.30833686 Z M17.4412184,14.9361943 C14.2366811,14.9361943 11.63767,17.7072886 11.63767,21.1301682 C11.63767,24.5502676 14.2366811,27.3223578 17.4412184,27.3223578 C20.64665,27.3223578 23.244728,24.5503091 23.244728,21.1301682 C23.244728,17.7072886 20.64665,14.9361943 17.4412184,14.9361943 L17.4412184,14.9361943 L17.4412184,14.9361943 L17.4412184,14.9361943 Z M16.8057747,23.8900081 C16.6360623,23.8900081 16.4655408,23.8207972 16.3366228,23.6818106 L14.9292914,22.179793 C14.6694951,21.9037461 14.6694951,21.4557678 14.9292914,21.1783593 C15.0588006,21.0401366 15.227953,20.9715234 15.3984745,20.9715234 C15.5676268,20.9715234 15.7373393,21.0401034 15.8674708,21.1783593 L16.8057747,22.179793 L19.5403422,19.2614743 C19.6691046,19.1230856 19.8395638,19.0538414 20.009463,19.0538414 C20.1797667,19.0538414 20.3489502,19.1230856 20.4784905,19.2614743 C20.7376956,19.5387167 20.7376956,19.9860973 20.4784905,20.2627419 L17.2749578,23.6818106 C17.1452619,23.8207972 16.9749271,23.8900081 16.8057747,23.8900081 L16.8057747,23.8900081 L16.8057747,23.8900081 L16.8057747,23.8900081 Z"
                      id="Shape"></path>
            </g>
        </g>
    </g>
</svg>